<svg xmlns="http://www.w3.org/2000/svg" style="display:none">
    <symbol id="icon-pdf-thin" viewBox="0 0 384 512">
        <path
        d="M186.7 286.8C198.9 251.9 200 222.9 200 215.5C200 202.5 189.2 192 176 192S152 202.5 152 215.5c0 .6562 .375 33.72 17.67 71.5c-10.89 30-23.66 56.75-35.7 78.94c-23.66 10.28-45.92 23.56-63.23 40.66C66.45 410.8 64 416.8 64 424.6C64 437.5 74.73 448 87.94 448c7.688 0 14.94-3.625 19.38-9.656c8.219-11.12 22.52-31.75 38.05-59.75c26.69-10.94 55.13-18.16 79.53-22.84c6.678 4.957 45.31 30.31 67.98 30.31C307.8 386.1 320 374.2 320 358.7c0-15.09-12.56-27.38-28-27.38c-21.44 0-59.14 6.516-63.41 7.281C208.1 322.8 195.7 304.4 186.7 286.8zM94.38 428.8C90.53 434 80 432.1 80 422.9c0-1.938 .7187-3.719 1.969-4.969c10.7-10.59 23.66-19.62 37.8-27.31C108.6 409.1 99.22 422.2 94.38 428.8zM168 215.5C168 211.3 171.6 208 176 208s8 3.344 8 7.469c0 17.56-4.906 40.25-6.844 48.56C168.3 238 168 217.5 168 215.5zM156.8 357c7.797-15.47 15.62-32.63 22.88-51.19c7.562 12.5 17.17 25.03 29.42 36.63C192.4 346.1 174.5 350.8 156.8 357zM292 347.3c6.609 0 12 5.094 12 12.22c0 5.781-4.984 10.5-11.12 10.5c-9.91 0-34.01-11.54-45.2-18.22C248.4 351.7 277.5 347.3 292 347.3zM374.6 150.6l-141.3-141.3C227.4 3.371 219.2 0 210.7 0H64C28.65 0 0 28.65 0 64l.0065 384c0 35.34 28.65 64 64 64H320c35.35 0 64-28.66 64-64V173.3C384 164.8 380.6 156.6 374.6 150.6zM224 22.63L361.4 160H248C234.8 160 224 149.2 224 136V22.63zM368 448c0 26.47-21.53 48-48 48H64c-26.47 0-48-21.53-48-48V64c0-26.47 21.53-48 48-48h144v120c0 22.06 17.94 40 40 40h120V448z" />
    </symbol>
    <symbol id="icon-pdf-light" viewBox="0 0 384 512">
        <path
            d="M365.3 125.3l-106.5-106.5C246.7 6.742 230.5 0 213.5 0H64C28.65 0 0 28.66 0 64l.0065 384c0 35.34 28.65 64 64 64H320c35.35 0 64-28.66 64-64V170.5C384 153.5 377.3 137.3 365.3 125.3zM224 34.08c4.477 1.562 8.666 3.844 12.12 7.297l106.5 106.5C346.1 151.3 348.4 155.5 349.9 160H240C231.2 160 224 152.8 224 144V34.08zM352 448c0 17.64-14.36 32-32 32H64c-17.64 0-32-14.36-32-32V64c0-17.64 14.36-32 32-32h128v112C192 170.5 213.5 192 240 192H352V448zM202.7 289.1c10.06-31.68 10.6-57.04 10.6-62.05C213.3 207.7 197.4 192 177.8 192S142.2 207.7 142.2 227.1c0 .3086 .1738 29.61 14.6 64c-7.396 19.62-16.33 39.33-26.63 58.7c-22.79 10.41-41.61 22.85-55.97 37.03C67.54 393.4 64 402.4 64 412.9C64 432.3 79.93 448 99.5 448c11.33 0 22.05-5.375 28.68-14.38c6.338-8.582 18.69-26.16 32.31-50.2c17.05-6.625 36.41-12.18 57.67-16.54c12.07 7.961 41.88 26.05 63.51 26.05C303.2 392.9 320 376 320 354.4c0-21.26-17.54-38.55-39.11-38.55c-16.06 0-40.51 3.656-52.21 5.566C218.3 312.2 209.6 301.4 202.7 289.1zM105.3 416.8c-3.416 4.664-12.82 2.891-12.82-5.25c0-1.723 .6387-3.305 1.75-4.418c9.514-9.418 21.03-17.44 33.6-24.28C117.9 399.2 109.6 410.9 105.3 416.8zM177.8 220.4c3.918 0 7.111 2.969 7.111 6.637c0 15.61-4.361 35.78-6.084 43.17C170.9 247.1 170.7 228.9 170.7 227.1C170.7 223.4 173.9 220.4 177.8 220.4zM160.7 352.9c6.932-13.75 13.89-29 20.33-45.5c6.723 11.11 15.26 22.25 26.15 32.56C192.4 343.2 176.5 347.4 160.7 352.9zM280.9 344.3c5.875 0 10.67 4.527 10.67 10.86c0 5.141-4.43 9.336-9.889 9.336c-8.809 0-30.23-10.26-40.18-16.2C242.1 348.2 268 344.3 280.9 344.3z" />
    </symbol>
    <symbol id="icon-pdf-regular" viewBox="0 0 384 512">
        <path
            d="M365.3 93.38l-74.63-74.64C278.6 6.742 262.3 0 245.4 0H64C28.65 0 0 28.65 0 64l.0065 384c0 35.34 28.65 64 64 64H320c35.2 0 64-28.8 64-64V138.6C384 121.7 377.3 105.4 365.3 93.38zM336 448c0 8.836-7.164 16-16 16H64.02c-8.838 0-16-7.164-16-16L48 64.13c0-8.836 7.164-16 16-16h160L224 128c0 17.67 14.33 32 32 32h79.1V448zM202 286.1c.877-2.688 1.74-5.398 2.582-8.145c1.434-5.762 7.488-31.54 7.488-52.47C212.1 207 197.1 192 178.6 192C160.1 192 145.1 207 145.1 225.5c0 .2969 .1641 28.81 13.85 62.3c-7.035 19.36-15.57 38.8-25.41 57.93c-21.49 10.11-39.24 22.23-52.8 36.07c-6.234 6.438-9.367 14.74-9.367 24.72c0 18.45 15.01 33.46 33.46 33.46c10.8 0 20.98-5.227 27.22-13.98c7.322-10.28 18.38-26.9 30.47-48.95c15.8-6.352 33.88-11.72 53.88-16c13.55 9.578 28.9 17.29 45.71 22.95c4.527 1.551 9.402 2.348 14.43 2.348c20.26 0 36.13-16.19 36.13-36.86c0-20.33-16.54-36.87-36.87-36.87h-3.705c-2.727 .125-20.51 1.141-45.37 5.367C216.9 308.9 208.6 298.3 202 286.1zM110.2 410.4c-3.273 4.688-12.03 2.777-12.03-5.312c0-1.754 .6289-3.43 1.729-4.555c9.02-9.219 19.94-17.05 31.85-23.72C122.3 393.1 114.3 404.7 110.2 410.4zM178.6 218.8c3.693 0 6.703 3.008 6.703 6.703c0 15.21-4.109 34.84-5.746 42.1C172.1 245 171.9 227.2 171.9 225.5C171.9 221.8 174.9 218.8 178.6 218.8zM162.3 348.3c6.611-13.48 13.22-28.46 19.38-44.7c6.389 10.92 14.56 21.86 24.96 31.97C192.6 338.8 177.4 342.9 162.3 348.3zM272.4 339.5h3.352c5.539 0 10.05 4.5 10.05 10.79c0 5.129-4.176 9.32-9.32 9.32c-2.029 0-4.059-.3164-5.852-.9414c-12.33-4.137-23.11-9.32-32.54-15.19C258.3 340.3 272.1 339.5 272.4 339.5z" />
    </symbol>
    <symbol id="icon-pdf-solid" viewBox="0 0 384 512">
        <path
            d="M184 208c0-4.406-3.594-8-8-8S168 203.6 168 208c0 2.062 .2969 23.31 9.141 50.25C179.1 249.6 184 226.2 184 208zM256 0v128h128L256 0zM80 422.4c0 9.656 10.47 11.97 14.38 6.375C99.27 421.9 108.8 408 120.1 388.6c-14.22 7.969-27.25 17.31-38.02 28.31C80.75 418.3 80 420.3 80 422.4zM224 128L224 0H48C21.49 0 0 21.49 0 48v416C0 490.5 21.49 512 48 512h288c26.51 0 48-21.49 48-48V160h-127.1C238.3 160 224 145.7 224 128zM292 312c24.26 0 44 19.74 44 44c0 24.67-18.94 44-43.13 44c-5.994 0-11.81-.9531-17.22-2.805c-20.06-6.758-38.38-15.96-54.55-27.39c-23.88 5.109-45.46 11.52-64.31 19.1c-14.43 26.31-27.63 46.15-36.37 58.41C112.1 457.8 100.8 464 87.94 464C65.92 464 48 446.1 48 424.1c0-11.92 3.74-21.82 11.18-29.51c16.18-16.52 37.37-30.99 63.02-43.05c11.75-22.83 21.94-46.04 30.33-69.14C136.2 242.4 136 208.4 136 208c0-22.05 17.95-40 40-40c22.06 0 40 17.95 40 40c0 24.1-7.227 55.75-8.938 62.63c-1.006 3.273-2.035 6.516-3.082 9.723c7.83 14.46 17.7 27.21 29.44 38.05C263.1 313.4 284.3 312.1 287.6 312H292zM156.5 354.6c17.98-6.5 36.13-11.44 52.92-15.19c-12.42-12.06-22.17-25.12-29.8-38.16C172.3 320.6 164.4 338.5 156.5 354.6zM292.9 368C299 368 304 363 304 356.9C304 349.4 298.6 344 292 344H288c-.3438 .0313-16.83 .9687-40.95 4.75c11.27 7 24.12 13.19 38.84 18.12C288 367.6 290.5 368 292.9 368z" />
    </symbol>
    <symbol id="icon-figma-solid" viewBox="0 0 384 512">
        <path d="M277 170.7A85.35 85.35 0 0 0 277 0H106.3a85.3 85.3 0 0 0 0 170.6 85.35 85.35 0 0 0 0 170.7 85.35 85.35 0 1 0 85.3 85.4v-256zm0 0a85.3 85.3 0 1 0 85.3 85.3 85.31 85.31 0 0 0-85.3-85.3z"/>
    </symbol>
    <symbol id="icon-linkedin-in" viewBox="0 0 384 512">
        <path d="M100.28 448H7.4V148.9h92.88zM53.79 108.1C24.09 108.1 0 83.5 0 53.8a53.79 53.79 0 0 1 107.58 0c0 29.7-24.1 54.3-53.79 54.3zM447.9 448h-92.68V302.4c0-34.7-.7-79.2-48.29-79.2-48.29 0-55.69 37.7-55.69 76.7V448h-92.78V148.9h89.08v40.8h1.3c12.4-23.5 42.69-48.3 87.88-48.3 94 0 111.28 61.9 111.28 142.3V448z"/>
    </symbol>
    <symbol id="icon-linkedin" viewBox="0 0 384 512">
        <path d="M416 32H31.9C14.3 32 0 46.5 0 64.3v383.4C0 465.5 14.3 480 31.9 480H416c17.6 0 32-14.5 32-32.3V64.3c0-17.8-14.4-32.3-32-32.3zM135.4 416H69V202.2h66.5V416zm-33.2-243c-21.3 0-38.5-17.3-38.5-38.5S80.9 96 102.2 96c21.2 0 38.5 17.3 38.5 38.5 0 21.3-17.2 38.5-38.5 38.5zm282.1 243h-66.4V312c0-24.8-.5-56.7-34.5-56.7-34.6 0-39.9 27-39.9 54.9V416h-66.4V202.2h63.7v29.2h.9c8.9-16.8 30.6-34.5 62.9-34.5 67.2 0 79.7 44.3 79.7 101.9V416z"/>
    </symbol>
    <symbol id="icon-xmark-bold" viewBox="0 0 384 512">
        <path d="M310.6 361.4c12.5 12.5 12.5 32.75 0 45.25C304.4 412.9 296.2 416 288 416s-16.38-3.125-22.62-9.375L160 301.3L54.63 406.6C48.38 412.9 40.19 416 32 416S15.63 412.9 9.375 406.6c-12.5-12.5-12.5-32.75 0-45.25l105.4-105.4L9.375 150.6c-12.5-12.5-12.5-32.75 0-45.25s32.75-12.5 45.25 0L160 210.8l105.4-105.4c12.5-12.5 32.75-12.5 45.25 0s12.5 32.75 0 45.25l-105.4 105.4L310.6 361.4z"/>
    </symbol>
    <symbol id="icon-xmark-regular" viewBox="0 0 384 512">
        <path d="M312.1 375c9.369 9.369 9.369 24.57 0 33.94s-24.57 9.369-33.94 0L160 289.9l-119 119c-9.369 9.369-24.57 9.369-33.94 0s-9.369-24.57 0-33.94L126.1 256L7.027 136.1c-9.369-9.369-9.369-24.57 0-33.94s24.57-9.369 33.94 0L160 222.1l119-119c9.369-9.369 24.57-9.369 33.94 0s9.369 24.57 0 33.94L193.9 256L312.1 375z"/>
    </symbol>
    <symbol id="icon-xmark-light" viewBox="0 0 384 512">
        <path d="M315.3 411.3c-6.253 6.253-16.37 6.253-22.63 0L160 278.6l-132.7 132.7c-6.253 6.253-16.37 6.253-22.63 0c-6.253-6.253-6.253-16.37 0-22.63L137.4 256L4.69 123.3c-6.253-6.253-6.253-16.37 0-22.63c6.253-6.253 16.37-6.253 22.63 0L160 233.4l132.7-132.7c6.253-6.253 16.37-6.253 22.63 0c6.253 6.253 6.253 16.37 0 22.63L182.6 256l132.7 132.7C321.6 394.9 321.6 405.1 315.3 411.3z"/>
    </symbol>
    <symbol id="icon-xmark-thin" viewBox="0 0 384 512">
        <path d="M317.7 402.3c3.125 3.125 3.125 8.188 0 11.31c-3.127 3.127-8.186 3.127-11.31 0L160 267.3l-146.3 146.3c-3.127 3.127-8.186 3.127-11.31 0c-3.125-3.125-3.125-8.188 0-11.31L148.7 256L2.344 109.7c-3.125-3.125-3.125-8.188 0-11.31s8.188-3.125 11.31 0L160 244.7l146.3-146.3c3.125-3.125 8.188-3.125 11.31 0s3.125 8.188 0 11.31L171.3 256L317.7 402.3z"/>
    </symbol>
    <symbol id="icon-external" viewBox="0 0 512 512">
        <path d="M400 288C391.2 288 384 295.2 384 304V448c0 17.67-14.33 32-32 32H64c-17.67 0-32-14.33-32-32V160c0-17.67 14.33-32 32-32h112C184.8 128 192 120.8 192 112S184.8 96 176 96L64 96c-35.35 0-64 28.65-64 64V448c0 35.35 28.65 64 64 64h288c35.35 0 64-28.65 64-64V304C416 295.2 408.8 288 400 288zM496 0h-160C327.2 0 320 7.156 320 16S327.2 32 336 32h121.4L180.7 308.7c-6.25 6.25-6.25 16.38 0 22.62C183.8 334.4 187.9 336 192 336s8.188-1.562 11.31-4.688L480 54.63V176C480 184.8 487.2 192 496 192S512 184.8 512 176v-160C512 7.156 504.8 0 496 0z"/>
    </symbol>
    <symbol id="icon-github" viewBox="0 0 496 512">
        <path d="M165.9 397.4c0 2-2.3 3.6-5.2 3.6-3.3.3-5.6-1.3-5.6-3.6 0-2 2.3-3.6 5.2-3.6 3-.3 5.6 1.3 5.6 3.6zm-31.1-4.5c-.7 2 1.3 4.3 4.3 4.9 2.6 1 5.6 0 6.2-2s-1.3-4.3-4.3-5.2c-2.6-.7-5.5.3-6.2 2.3zm44.2-1.7c-2.9.7-4.9 2.6-4.6 4.9.3 2 2.9 3.3 5.9 2.6 2.9-.7 4.9-2.6 4.6-4.6-.3-1.9-3-3.2-5.9-2.9zM244.8 8C106.1 8 0 113.3 0 252c0 110.9 69.8 205.8 169.5 239.2 12.8 2.3 17.3-5.6 17.3-12.1 0-6.2-.3-40.4-.3-61.4 0 0-70 15-84.7-29.8 0 0-11.4-29.1-27.8-36.6 0 0-22.9-15.7 1.6-15.4 0 0 24.9 2 38.6 25.8 21.9 38.6 58.6 27.5 72.9 20.9 2.3-16 8.8-27.1 16-33.7-55.9-6.2-112.3-14.3-112.3-110.5 0-27.5 7.6-41.3 23.6-58.9-2.6-6.5-11.1-33.3 2.6-67.9 20.9-6.5 69 27 69 27 20-5.6 41.5-8.5 62.8-8.5s42.8 2.9 62.8 8.5c0 0 48.1-33.6 69-27 13.7 34.7 5.2 61.4 2.6 67.9 16 17.7 25.8 31.5 25.8 58.9 0 96.5-58.9 104.2-114.8 110.5 9.2 7.9 17 22.9 17 46.4 0 33.7-.3 75.4-.3 83.6 0 6.5 4.6 14.4 17.3 12.1C428.2 457.8 496 362.9 496 252 496 113.3 383.5 8 244.8 8zM97.2 352.9c-1.3 1-1 3.3.7 5.2 1.6 1.6 3.9 2.3 5.2 1 1.3-1 1-3.3-.7-5.2-1.6-1.6-3.9-2.3-5.2-1zm-10.8-8.1c-.7 1.3.3 2.9 2.3 3.9 1.6 1 3.6.7 4.3-.7.7-1.3-.3-2.9-2.3-3.9-2-.6-3.6-.3-4.3.7zm32.4 35.6c-1.6 1.3-1 4.3 1.3 6.2 2.3 2.3 5.2 2.6 6.5 1 1.3-1.3.7-4.3-1.3-6.2-2.2-2.3-5.2-2.6-6.5-1zm-11.4-14.7c-1.6 1-1.6 3.6 0 5.9 1.6 2.3 4.3 3.3 5.6 2.3 1.6-1.3 1.6-3.9 0-6.2-1.4-2.3-4-3.3-5.6-2z"/>
    </symbol>
</svg>
