<svg xmlns="http://www.w3.org/2000/svg" style="display:none">
    <symbol id="illus-dropship" viewBox="0 0 1065 1004">
        <path fill-rule="evenodd" clip-rule="evenodd" d="M802.619 754.377C802.493 755.145 802.252 755.907 801.888 756.641C799.925 760.599 795.125 762.216 791.167 760.253C787.209 758.29 785.592 753.49 787.555 749.532C789.518 745.574 794.318 743.956 798.276 745.919C800.538 747.041 802.035 749.089 802.537 751.377C838.117 749.443 863.392 734.297 879.604 713.359C896.674 691.314 903.774 662.744 902.118 636.166L895.118 637.099L901.721 621.086L912.287 634.811L905.099 635.769C906.844 663.025 899.601 692.435 881.976 715.196C865.197 736.866 839.077 752.416 802.619 754.377Z" />
        <path fill-rule="evenodd" clip-rule="evenodd" d="M343.714 299L357.67 309.258L341.809 316.215L342.59 309.154C246.154 302.406 185.242 368.952 148.272 446.237L154.765 449.191L140.67 459.258L139 442.018L145.541 444.994C182.721 367.244 244.541 299.225 342.92 306.17L343.714 299Z" />
        <path fill-rule="evenodd" clip-rule="evenodd" d="M563 3.5C300.263 3.5 84.9996 206.761 65.881 464.611L62.8892 464.389C82.1231 204.984 298.681 0.5 563 0.5C839.971 0.5 1064.5 225.029 1064.5 502C1064.5 778.971 839.971 1003.5 563 1003.5C299.363 1003.5 83.2405 800.069 63.0419 541.617L66.0328 541.383C86.1103 798.286 300.941 1000.5 563 1000.5C838.314 1000.5 1061.5 777.314 1061.5 502C1061.5 226.686 838.314 3.5 563 3.5Z" />
        <path fill-rule="evenodd" clip-rule="evenodd" d="M184 466H16C8.8203 466 3 471.82 3 479V527C3 534.18 8.8203 540 16 540H184C191.18 540 197 534.18 197 527V479C197 471.82 191.18 466 184 466ZM16 463C7.16344 463 0 470.163 0 479V527C0 535.837 7.16344 543 16 543H184C192.837 543 200 535.837 200 527V479C200 470.163 192.837 463 184 463H16Z" />
        <path d="M43.7553 498.428H40.0223C39.9542 497.945 39.815 497.516 39.6047 497.141C39.3945 496.76 39.1246 496.436 38.7951 496.169C38.4655 495.902 38.0848 495.697 37.653 495.555C37.2269 495.413 36.7638 495.342 36.2638 495.342C35.3604 495.342 34.5735 495.567 33.903 496.016C33.2326 496.459 32.7127 497.106 32.3434 497.959C31.9741 498.805 31.7894 499.834 31.7894 501.044C31.7894 502.288 31.9741 503.334 32.3434 504.18C32.7184 505.027 33.2411 505.666 33.9115 506.098C34.582 506.53 35.3576 506.746 36.2383 506.746C36.7326 506.746 37.19 506.68 37.6104 506.55C38.0365 506.419 38.4144 506.229 38.7439 505.979C39.0735 505.723 39.3462 505.413 39.5621 505.05C39.7837 504.686 39.9371 504.271 40.0223 503.805L43.7553 503.822C43.6587 504.624 43.4172 505.396 43.0309 506.141C42.6502 506.879 42.136 507.541 41.4883 508.126C40.8462 508.706 40.0792 509.166 39.1871 509.507C38.3008 509.842 37.2979 510.01 36.1786 510.01C34.6218 510.01 33.2297 509.658 32.0025 508.953C30.7809 508.249 29.815 507.229 29.1047 505.893C28.4002 504.558 28.0479 502.942 28.0479 501.044C28.0479 499.141 28.4059 497.521 29.1218 496.186C29.8377 494.851 30.8093 493.834 32.0365 493.135C33.2638 492.43 34.6445 492.078 36.1786 492.078C37.19 492.078 38.1275 492.22 38.9911 492.504C39.8604 492.788 40.6303 493.203 41.3008 493.749C41.9712 494.288 42.5167 494.95 42.9371 495.734C43.3633 496.518 43.636 497.416 43.7553 498.428Z" />
        <path d="M55.8704 497.337C55.8022 496.649 55.5096 496.115 54.9925 495.734C54.4755 495.354 53.7738 495.163 52.8874 495.163C52.2851 495.163 51.7766 495.249 51.3618 495.419C50.9471 495.584 50.6289 495.814 50.4073 496.109C50.1914 496.405 50.0834 496.74 50.0834 497.115C50.0721 497.428 50.1374 497.7 50.2794 497.933C50.4272 498.166 50.6289 498.368 50.8846 498.538C51.1402 498.703 51.4357 498.848 51.7709 498.973C52.1062 499.092 52.4641 499.195 52.8448 499.28L54.413 499.655C55.1743 499.825 55.8732 500.053 56.5096 500.337C57.1459 500.621 57.6971 500.97 58.163 501.385C58.6289 501.8 58.9897 502.288 59.2454 502.851C59.5067 503.413 59.6402 504.058 59.6459 504.785C59.6402 505.854 59.3675 506.78 58.8277 507.564C58.2937 508.342 57.5209 508.947 56.5096 509.379C55.5039 509.805 54.2908 510.018 52.8704 510.018C51.4613 510.018 50.234 509.803 49.1885 509.371C48.1488 508.939 47.3363 508.3 46.751 507.453C46.1715 506.601 45.8675 505.547 45.8391 504.291H49.4101C49.4499 504.876 49.6175 505.365 49.913 505.757C50.2141 506.143 50.6147 506.436 51.1147 506.635C51.6204 506.828 52.1914 506.925 52.8277 506.925C53.4527 506.925 53.9954 506.834 54.4556 506.652C54.9215 506.47 55.2823 506.217 55.538 505.893C55.7937 505.57 55.9215 505.197 55.9215 504.777C55.9215 504.385 55.805 504.055 55.5721 503.788C55.3448 503.521 55.0096 503.294 54.5664 503.107C54.1289 502.919 53.5919 502.749 52.9556 502.595L51.055 502.118C49.5834 501.76 48.4215 501.2 47.5692 500.439C46.7169 499.678 46.2936 498.652 46.2993 497.362C46.2936 496.305 46.5749 495.382 47.1431 494.592C47.7169 493.803 48.5039 493.186 49.5039 492.743C50.5039 492.3 51.6402 492.078 52.913 492.078C54.2084 492.078 55.3391 492.3 56.305 492.743C57.2766 493.186 58.0323 493.803 58.5721 494.592C59.1118 495.382 59.3902 496.297 59.4073 497.337H55.8704Z" />
        <path d="M73.8704 509.771H67.6829V492.317H73.9215C75.6772 492.317 77.1885 492.666 78.4556 493.365C79.7226 494.058 80.6971 495.055 81.3789 496.357C82.0664 497.658 82.4101 499.214 82.4101 501.027C82.4101 502.845 82.0664 504.408 81.3789 505.714C80.6971 507.021 79.7169 508.024 78.4385 508.723C77.1658 509.422 75.6431 509.771 73.8704 509.771ZM71.3732 506.609H73.7169C74.8079 506.609 75.7255 506.416 76.4698 506.03C77.2198 505.638 77.7823 505.033 78.1573 504.214C78.538 503.391 78.7283 502.328 78.7283 501.027C78.7283 499.737 78.538 498.683 78.1573 497.865C77.7823 497.047 77.2226 496.445 76.4783 496.058C75.734 495.672 74.8164 495.479 73.7255 495.479H71.3732V506.609Z" />
        <path d="M85.0756 509.771V496.68H88.5955V498.964H88.7319C88.9705 498.152 89.3711 497.538 89.9336 497.124C90.4961 496.703 91.1438 496.493 91.8767 496.493C92.0586 496.493 92.2546 496.504 92.4648 496.527C92.675 496.55 92.8597 496.581 93.0188 496.621V499.842C92.8483 499.791 92.6125 499.746 92.3114 499.706C92.0103 499.666 91.7347 499.646 91.4847 499.646C90.9506 499.646 90.4733 499.763 90.0529 499.996C89.6381 500.223 89.3086 500.541 89.0642 500.95C88.8256 501.359 88.7063 501.831 88.7063 502.365V509.771H85.0756Z" />
        <path d="M100.201 510.027C98.8775 510.027 97.7326 509.746 96.7667 509.183C95.8064 508.615 95.065 507.825 94.5422 506.814C94.0195 505.797 93.7581 504.618 93.7581 503.277C93.7581 501.925 94.0195 500.743 94.5422 499.732C95.065 498.714 95.8064 497.925 96.7667 497.362C97.7326 496.794 98.8775 496.51 100.201 496.51C101.525 496.51 102.667 496.794 103.627 497.362C104.593 497.925 105.338 498.714 105.86 499.732C106.383 500.743 106.645 501.925 106.645 503.277C106.645 504.618 106.383 505.797 105.86 506.814C105.338 507.825 104.593 508.615 103.627 509.183C102.667 509.746 101.525 510.027 100.201 510.027ZM100.218 507.214C100.821 507.214 101.323 507.044 101.727 506.703C102.13 506.357 102.434 505.885 102.639 505.288C102.849 504.692 102.954 504.013 102.954 503.251C102.954 502.49 102.849 501.811 102.639 501.214C102.434 500.618 102.13 500.146 101.727 499.8C101.323 499.453 100.821 499.28 100.218 499.28C99.6104 499.28 99.099 499.453 98.6843 499.8C98.2752 500.146 97.9655 500.618 97.7553 501.214C97.5507 501.811 97.4485 502.49 97.4485 503.251C97.4485 504.013 97.5507 504.692 97.7553 505.288C97.9655 505.885 98.2752 506.357 98.6843 506.703C99.099 507.044 99.6104 507.214 100.218 507.214Z" />
        <path d="M109.005 514.68V496.68H112.585V498.879H112.747C112.906 498.527 113.136 498.169 113.437 497.805C113.744 497.436 114.142 497.129 114.63 496.885C115.125 496.635 115.738 496.51 116.471 496.51C117.426 496.51 118.306 496.76 119.113 497.26C119.92 497.754 120.565 498.501 121.048 499.501C121.531 500.496 121.772 501.743 121.772 503.243C121.772 504.703 121.537 505.936 121.065 506.942C120.599 507.942 119.963 508.7 119.156 509.217C118.355 509.729 117.457 509.984 116.463 509.984C115.758 509.984 115.159 509.868 114.664 509.635C114.176 509.402 113.775 509.109 113.463 508.757C113.15 508.399 112.912 508.038 112.747 507.675H112.636V514.68H109.005ZM112.559 503.226C112.559 504.004 112.667 504.683 112.883 505.263C113.099 505.842 113.412 506.294 113.821 506.618C114.23 506.936 114.727 507.095 115.312 507.095C115.903 507.095 116.403 506.933 116.812 506.609C117.221 506.28 117.531 505.825 117.741 505.246C117.957 504.661 118.065 503.987 118.065 503.226C118.065 502.47 117.96 501.805 117.75 501.232C117.539 500.658 117.23 500.209 116.821 499.885C116.412 499.561 115.909 499.399 115.312 499.399C114.721 499.399 114.221 499.555 113.812 499.868C113.409 500.18 113.099 500.624 112.883 501.197C112.667 501.771 112.559 502.447 112.559 503.226Z" />
        <path d="M135.085 500.413L131.761 500.618C131.704 500.334 131.582 500.078 131.395 499.851C131.207 499.618 130.96 499.433 130.653 499.297C130.352 499.155 129.991 499.084 129.571 499.084C129.008 499.084 128.534 499.203 128.147 499.442C127.761 499.675 127.568 499.987 127.568 500.379C127.568 500.692 127.693 500.956 127.943 501.172C128.193 501.388 128.622 501.561 129.23 501.692L131.599 502.169C132.872 502.43 133.821 502.851 134.446 503.43C135.071 504.01 135.383 504.771 135.383 505.714C135.383 506.572 135.13 507.325 134.625 507.973C134.125 508.621 133.437 509.126 132.562 509.49C131.693 509.848 130.69 510.027 129.554 510.027C127.821 510.027 126.44 509.666 125.412 508.945C124.389 508.217 123.789 507.229 123.613 505.979L127.184 505.791C127.292 506.32 127.554 506.723 127.968 507.001C128.383 507.274 128.914 507.41 129.562 507.41C130.198 507.41 130.71 507.288 131.096 507.044C131.488 506.794 131.687 506.473 131.693 506.081C131.687 505.751 131.548 505.482 131.275 505.271C131.002 505.055 130.582 504.891 130.014 504.777L127.747 504.325C126.468 504.07 125.517 503.626 124.892 502.996C124.272 502.365 123.963 501.561 123.963 500.584C123.963 499.743 124.19 499.018 124.645 498.41C125.105 497.803 125.75 497.334 126.579 497.004C127.414 496.675 128.392 496.51 129.511 496.51C131.164 496.51 132.466 496.859 133.414 497.558C134.369 498.257 134.926 499.209 135.085 500.413Z" />
        <path d="M141.3 502.203V509.771H137.669V492.317H141.198V498.99H141.351C141.647 498.217 142.124 497.612 142.783 497.175C143.442 496.732 144.269 496.51 145.263 496.51C146.172 496.51 146.965 496.709 147.641 497.107C148.323 497.499 148.851 498.064 149.226 498.803C149.607 499.535 149.794 500.413 149.789 501.436V509.771H146.158V502.084C146.164 501.277 145.959 500.649 145.544 500.2C145.135 499.751 144.561 499.527 143.823 499.527C143.328 499.527 142.891 499.632 142.51 499.842C142.135 500.053 141.84 500.359 141.624 500.763C141.414 501.16 141.306 501.641 141.3 502.203Z" />
        <path d="M152.646 509.771V496.68H156.277V509.771H152.646ZM154.47 494.993C153.93 494.993 153.467 494.814 153.081 494.456C152.7 494.092 152.51 493.658 152.51 493.152C152.51 492.652 152.7 492.223 153.081 491.865C153.467 491.501 153.93 491.32 154.47 491.32C155.01 491.32 155.47 491.501 155.85 491.865C156.237 492.223 156.43 492.652 156.43 493.152C156.43 493.658 156.237 494.092 155.85 494.456C155.47 494.814 155.01 494.993 154.47 494.993Z" />
        <path d="M159.185 514.68V496.68H162.765V498.879H162.926C163.086 498.527 163.316 498.169 163.617 497.805C163.924 497.436 164.321 497.129 164.81 496.885C165.304 496.635 165.918 496.51 166.651 496.51C167.605 496.51 168.486 496.76 169.293 497.26C170.1 497.754 170.745 498.501 171.228 499.501C171.711 500.496 171.952 501.743 171.952 503.243C171.952 504.703 171.716 505.936 171.245 506.942C170.779 507.942 170.142 508.7 169.336 509.217C168.534 509.729 167.637 509.984 166.642 509.984C165.938 509.984 165.338 509.868 164.844 509.635C164.355 509.402 163.955 509.109 163.642 508.757C163.33 508.399 163.091 508.038 162.926 507.675H162.816V514.68H159.185ZM162.739 503.226C162.739 504.004 162.847 504.683 163.063 505.263C163.279 505.842 163.591 506.294 164 506.618C164.409 506.936 164.907 507.095 165.492 507.095C166.083 507.095 166.583 506.933 166.992 506.609C167.401 506.28 167.711 505.825 167.921 505.246C168.137 504.661 168.245 503.987 168.245 503.226C168.245 502.47 168.14 501.805 167.929 501.232C167.719 500.658 167.409 500.209 167 499.885C166.591 499.561 166.088 499.399 165.492 499.399C164.901 499.399 164.401 499.555 163.992 499.868C163.588 500.18 163.279 500.624 163.063 501.197C162.847 501.771 162.739 502.447 162.739 503.226Z" />
        <path d="M512.763 254.164C511.804 254.164 510.82 254.426 509.906 255.004L478.857 275.593V259.722C478.857 256.586 476.275 254.363 473.482 254.363C472.523 254.362 471.539 254.624 470.625 255.202L439.571 275.593V239.879C439.571 235.934 436.373 232.736 432.429 232.736H411C407.056 232.736 403.857 235.934 403.857 239.879V325.593C403.857 329.537 407.056 332.736 411 332.736H511C514.944 332.736 518.143 329.537 518.143 325.593V259.722C518.143 256.397 515.554 254.164 512.763 254.164ZM514.571 325.593C514.571 327.563 512.97 329.164 511 329.164H411C409.03 329.164 407.429 327.563 407.429 325.593V239.879C407.429 237.909 409.03 236.307 411 236.307H432.429C434.398 236.307 436 237.909 436 239.879V275.593C436 276.909 436.723 278.118 437.883 278.74C438.411 279.231 438.991 279.164 439.571 279.164C440.261 279.164 440.949 278.965 441.545 278.57L472.527 258.023C472.828 257.833 473.146 257.737 473.473 257.737C474.348 257.736 475.286 258.629 475.286 259.722V275.792C475.286 277.108 476.009 278.316 477.168 278.939C477.696 279.231 478.277 279.164 478.857 279.164C479.547 279.164 480.235 278.965 480.83 278.57L511.813 258.023C512.113 257.833 512.431 257.737 512.759 257.737C513.634 257.736 514.571 258.629 514.571 259.722V325.593ZM494.036 295.236H485.107C482.645 295.236 480.643 297.238 480.643 299.7V308.629C480.643 311.091 482.645 313.093 485.107 313.093H494.036C496.498 313.093 498.5 311.091 498.5 308.629V299.7C498.5 297.245 496.491 295.236 494.036 295.236ZM494.929 308.629C494.929 309.124 494.531 309.522 494.036 309.522H485.107C484.612 309.522 484.214 309.124 484.214 308.629V299.7C484.214 299.205 484.612 298.807 485.107 298.807H494.036C494.531 298.807 494.929 299.205 494.929 299.7V308.629ZM465.464 295.236H456.536C454.074 295.236 452.071 297.238 452.071 299.7V308.629C452.071 311.091 454.073 313.093 456.536 313.093H465.464C467.926 313.093 469.929 311.091 469.929 308.629V299.7C469.929 297.245 467.92 295.236 465.464 295.236ZM466.357 308.629C466.357 309.124 465.96 309.522 465.464 309.522H456.536C456.04 309.522 455.643 309.124 455.643 308.629V299.7C455.643 299.205 456.04 298.807 456.536 298.807H465.464C465.96 298.807 466.357 299.205 466.357 299.7V308.629ZM436.893 295.236H427.964C425.502 295.236 423.5 297.238 423.5 299.7V308.629C423.5 311.091 425.502 313.093 427.964 313.093H436.893C439.355 313.093 441.357 311.091 441.357 308.629V299.7C441.357 297.245 439.348 295.236 436.893 295.236ZM437.786 308.629C437.786 309.124 437.388 309.522 436.893 309.522H427.964C427.469 309.522 427.071 309.124 427.071 308.629V299.7C427.071 299.205 427.469 298.807 427.964 298.807H436.893C437.388 298.807 437.786 299.205 437.786 299.7V308.629Z" />
        <path d="M381.887 345.554H386.438L391.245 357.281H391.449L396.256 345.554H400.807V363.009H397.228V351.648H397.083L392.566 362.923H390.128L385.611 351.605H385.466V363.009H381.887V345.554Z" />
        <path d="M407.512 363.256C406.677 363.256 405.933 363.111 405.279 362.821C404.626 362.526 404.109 362.091 403.728 361.517C403.353 360.938 403.166 360.216 403.166 359.352C403.166 358.625 403.299 358.014 403.566 357.52C403.833 357.026 404.197 356.628 404.657 356.327C405.118 356.026 405.64 355.798 406.225 355.645C406.816 355.492 407.436 355.384 408.083 355.321C408.845 355.242 409.458 355.168 409.924 355.099C410.39 355.026 410.728 354.918 410.939 354.776C411.149 354.634 411.254 354.423 411.254 354.145V354.094C411.254 353.554 411.083 353.136 410.743 352.841C410.407 352.545 409.93 352.398 409.311 352.398C408.657 352.398 408.137 352.543 407.751 352.832C407.365 353.117 407.109 353.474 406.984 353.906L403.626 353.634C403.797 352.838 404.132 352.151 404.632 351.571C405.132 350.986 405.777 350.537 406.566 350.224C407.362 349.906 408.282 349.747 409.328 349.747C410.055 349.747 410.751 349.832 411.416 350.003C412.086 350.173 412.68 350.438 413.197 350.796C413.72 351.153 414.132 351.614 414.433 352.176C414.734 352.733 414.885 353.401 414.885 354.179V363.009H411.441V361.193H411.339C411.129 361.602 410.848 361.963 410.495 362.276C410.143 362.582 409.72 362.824 409.225 363C408.731 363.171 408.16 363.256 407.512 363.256ZM408.552 360.75C409.086 360.75 409.558 360.645 409.967 360.435C410.376 360.219 410.697 359.929 410.93 359.565C411.163 359.202 411.279 358.79 411.279 358.33V356.94C411.166 357.014 411.01 357.082 410.811 357.145C410.618 357.202 410.399 357.256 410.154 357.307C409.91 357.352 409.666 357.395 409.422 357.435C409.177 357.469 408.956 357.5 408.757 357.528C408.331 357.591 407.958 357.69 407.64 357.827C407.322 357.963 407.075 358.148 406.899 358.381C406.723 358.608 406.635 358.892 406.635 359.233C406.635 359.727 406.814 360.105 407.172 360.367C407.535 360.622 407.995 360.75 408.552 360.75Z" />
        <path d="M421.332 355.44V363.009H417.701V349.918H421.162V352.227H421.315C421.605 351.466 422.091 350.864 422.772 350.421C423.454 349.972 424.281 349.747 425.253 349.747C426.162 349.747 426.954 349.946 427.63 350.344C428.306 350.742 428.832 351.31 429.207 352.048C429.582 352.781 429.77 353.656 429.77 354.673V363.009H426.139V355.321C426.145 354.52 425.94 353.895 425.525 353.446C425.11 352.992 424.539 352.764 423.812 352.764C423.323 352.764 422.892 352.869 422.517 353.08C422.147 353.29 421.858 353.597 421.647 354C421.443 354.398 421.338 354.878 421.332 355.44Z" />
        <path d="M441.026 357.435V349.918H444.657V363.009H441.171V360.631H441.034C440.739 361.398 440.248 362.014 439.56 362.48C438.878 362.946 438.046 363.179 437.063 363.179C436.188 363.179 435.418 362.98 434.753 362.582C434.088 362.185 433.569 361.619 433.194 360.886C432.824 360.153 432.637 359.276 432.631 358.253V349.918H436.262V357.605C436.267 358.378 436.475 358.989 436.884 359.438C437.293 359.886 437.841 360.111 438.529 360.111C438.966 360.111 439.375 360.011 439.756 359.813C440.137 359.608 440.444 359.307 440.676 358.909C440.915 358.511 441.032 358.02 441.026 357.435Z" />
        <path d="M454.6 349.918V352.645H446.521V349.918H454.6ZM448.37 363.009V348.972C448.37 348.023 448.555 347.236 448.924 346.611C449.299 345.986 449.811 345.517 450.458 345.205C451.106 344.892 451.842 344.736 452.666 344.736C453.223 344.736 453.731 344.778 454.191 344.864C454.657 344.949 455.004 345.026 455.231 345.094L454.583 347.821C454.441 347.776 454.265 347.733 454.055 347.693C453.851 347.653 453.64 347.634 453.424 347.634C452.89 347.634 452.518 347.759 452.308 348.009C452.098 348.253 451.993 348.597 451.993 349.04V363.009H448.37Z" />
        <path d="M460.083 363.256C459.248 363.256 458.503 363.111 457.85 362.821C457.196 362.526 456.679 362.091 456.299 361.517C455.924 360.938 455.736 360.216 455.736 359.352C455.736 358.625 455.87 358.014 456.137 357.52C456.404 357.026 456.767 356.628 457.228 356.327C457.688 356.026 458.211 355.798 458.796 355.645C459.387 355.492 460.006 355.384 460.654 355.321C461.415 355.242 462.029 355.168 462.495 355.099C462.961 355.026 463.299 354.918 463.509 354.776C463.719 354.634 463.824 354.423 463.824 354.145V354.094C463.824 353.554 463.654 353.136 463.313 352.841C462.978 352.545 462.5 352.398 461.881 352.398C461.228 352.398 460.708 352.543 460.321 352.832C459.935 353.117 459.679 353.474 459.554 353.906L456.196 353.634C456.367 352.838 456.702 352.151 457.202 351.571C457.702 350.986 458.347 350.537 459.137 350.224C459.932 349.906 460.853 349.747 461.898 349.747C462.625 349.747 463.321 349.832 463.986 350.003C464.657 350.173 465.25 350.438 465.767 350.796C466.29 351.153 466.702 351.614 467.003 352.176C467.304 352.733 467.455 353.401 467.455 354.179V363.009H464.012V361.193H463.909C463.699 361.602 463.418 361.963 463.066 362.276C462.713 362.582 462.29 362.824 461.796 363C461.301 363.171 460.73 363.256 460.083 363.256ZM461.122 360.75C461.657 360.75 462.128 360.645 462.537 360.435C462.946 360.219 463.267 359.929 463.5 359.565C463.733 359.202 463.85 358.79 463.85 358.33V356.94C463.736 357.014 463.58 357.082 463.381 357.145C463.188 357.202 462.969 357.256 462.725 357.307C462.48 357.352 462.236 357.395 461.992 357.435C461.748 357.469 461.526 357.5 461.327 357.528C460.901 357.591 460.529 357.69 460.211 357.827C459.892 357.963 459.645 358.148 459.469 358.381C459.293 358.608 459.205 358.892 459.205 359.233C459.205 359.727 459.384 360.105 459.742 360.367C460.105 360.622 460.566 360.75 461.122 360.75Z" />
        <path d="M476.186 363.264C474.846 363.264 473.692 362.98 472.726 362.412C471.766 361.838 471.027 361.043 470.51 360.026C469.999 359.009 469.743 357.838 469.743 356.514C469.743 355.173 470.002 353.997 470.519 352.986C471.042 351.969 471.783 351.176 472.743 350.608C473.703 350.034 474.846 349.747 476.169 349.747C477.311 349.747 478.311 349.955 479.169 350.369C480.027 350.784 480.706 351.367 481.206 352.117C481.706 352.867 481.982 353.747 482.033 354.759H478.607C478.51 354.105 478.255 353.58 477.84 353.182C477.431 352.778 476.894 352.577 476.229 352.577C475.667 352.577 475.175 352.73 474.755 353.037C474.34 353.338 474.016 353.778 473.783 354.358C473.55 354.938 473.434 355.639 473.434 356.463C473.434 357.298 473.547 358.009 473.775 358.594C474.007 359.179 474.334 359.625 474.755 359.932C475.175 360.239 475.667 360.392 476.229 360.392C476.644 360.392 477.016 360.307 477.346 360.136C477.681 359.966 477.956 359.719 478.172 359.395C478.394 359.065 478.539 358.67 478.607 358.21H482.033C481.976 359.21 481.703 360.091 481.215 360.852C480.732 361.608 480.064 362.199 479.212 362.625C478.36 363.051 477.351 363.264 476.186 363.264Z" />
        <path d="M491.321 349.918V352.645H483.437V349.918H491.321ZM485.227 346.781H488.858V358.986C488.858 359.321 488.909 359.582 489.011 359.77C489.113 359.952 489.255 360.08 489.437 360.153C489.625 360.227 489.841 360.264 490.085 360.264C490.255 360.264 490.426 360.25 490.596 360.222C490.767 360.188 490.897 360.162 490.988 360.145L491.559 362.847C491.377 362.903 491.122 362.969 490.792 363.043C490.463 363.122 490.062 363.171 489.591 363.188C488.716 363.222 487.949 363.105 487.289 362.838C486.636 362.571 486.127 362.156 485.764 361.594C485.4 361.031 485.221 360.321 485.227 359.463V346.781Z" />
        <path d="M502.081 357.435V349.918H505.711V363.009H502.225V360.631H502.089C501.794 361.398 501.302 362.014 500.615 362.48C499.933 362.946 499.101 363.179 498.118 363.179C497.243 363.179 496.473 362.98 495.808 362.582C495.143 362.185 494.623 361.619 494.248 360.886C493.879 360.153 493.691 359.276 493.686 358.253V349.918H497.316V357.605C497.322 358.378 497.529 358.989 497.939 359.438C498.348 359.886 498.896 360.111 499.583 360.111C500.021 360.111 500.43 360.011 500.811 359.813C501.191 359.608 501.498 359.307 501.731 358.909C501.97 358.511 502.086 358.02 502.081 357.435Z" />
        <path d="M508.615 363.009V349.918H512.135V352.202H512.272C512.51 351.389 512.911 350.776 513.473 350.361C514.036 349.94 514.684 349.73 515.417 349.73C515.598 349.73 515.794 349.742 516.005 349.764C516.215 349.787 516.4 349.818 516.559 349.858V353.08C516.388 353.028 516.152 352.983 515.851 352.943C515.55 352.903 515.275 352.884 515.025 352.884C514.49 352.884 514.013 353 513.593 353.233C513.178 353.46 512.848 353.778 512.604 354.188C512.365 354.597 512.246 355.068 512.246 355.602V363.009H508.615Z" />
        <path d="M523.792 363.264C522.446 363.264 521.287 362.992 520.315 362.446C519.349 361.895 518.605 361.117 518.082 360.111C517.559 359.099 517.298 357.903 517.298 356.523C517.298 355.176 517.559 353.994 518.082 352.977C518.605 351.96 519.341 351.168 520.289 350.599C521.244 350.031 522.363 349.747 523.647 349.747C524.511 349.747 525.315 349.886 526.059 350.165C526.809 350.438 527.463 350.849 528.02 351.401C528.582 351.952 529.02 352.645 529.332 353.48C529.645 354.31 529.801 355.281 529.801 356.395V357.392H518.747V355.142H526.383C526.383 354.619 526.27 354.156 526.042 353.753C525.815 353.349 525.5 353.034 525.096 352.807C524.699 352.574 524.235 352.457 523.707 352.457C523.156 352.457 522.667 352.585 522.241 352.841C521.821 353.091 521.491 353.429 521.253 353.855C521.014 354.276 520.892 354.744 520.886 355.261V357.401C520.886 358.048 521.005 358.608 521.244 359.08C521.488 359.551 521.832 359.915 522.275 360.171C522.718 360.426 523.244 360.554 523.852 360.554C524.255 360.554 524.625 360.497 524.96 360.384C525.295 360.27 525.582 360.099 525.821 359.872C526.059 359.645 526.241 359.367 526.366 359.037L529.724 359.259C529.554 360.065 529.204 360.77 528.676 361.372C528.153 361.969 527.477 362.435 526.647 362.77C525.823 363.099 524.872 363.264 523.792 363.264Z" />
        <path d="M532.17 363.009V349.918H535.69V352.202H535.826C536.065 351.389 536.466 350.776 537.028 350.361C537.591 349.94 538.238 349.73 538.971 349.73C539.153 349.73 539.349 349.742 539.559 349.764C539.77 349.787 539.954 349.818 540.113 349.858V353.08C539.943 353.028 539.707 352.983 539.406 352.943C539.105 352.903 538.829 352.884 538.579 352.884C538.045 352.884 537.568 353 537.147 353.233C536.733 353.46 536.403 353.778 536.159 354.188C535.92 354.597 535.801 355.068 535.801 355.602V363.009H532.17Z" />
        <path fill-rule="evenodd" clip-rule="evenodd" d="M545 201H377C369.82 201 364 206.82 364 214V382C364 389.18 369.82 395 377 395H545C552.18 395 558 389.18 558 382V214C558 206.82 552.18 201 545 201ZM377 198C368.163 198 361 205.163 361 214V382C361 390.837 368.163 398 377 398H545C553.837 398 561 390.837 561 382V214C561 205.163 553.837 198 545 198H377Z" />
        <path d="M778.75 191.818C771.875 191.857 766.289 197.424 766.289 204.318C766.289 211.213 771.875 216.779 778.75 216.642C785.625 216.779 791.211 211.213 791.211 204.318C791.211 197.424 785.625 191.857 778.75 191.818ZM778.77 213.517C773.613 213.674 769.434 209.474 769.434 204.318C769.434 199.176 773.615 194.974 778.756 194.947C783.887 194.982 788.066 199.182 788.066 204.318C788.066 209.474 783.887 213.674 778.77 213.517ZM680.312 188.693C681.175 188.693 681.875 187.994 681.875 187.131V151.512C681.875 147.889 684.68 144.943 688.125 144.943H781.875C785.32 144.943 788.125 147.889 788.125 151.512V187.131C788.125 187.994 788.825 188.693 789.688 188.693C790.55 188.693 791.25 187.99 791.25 187.131V151.512C791.25 146.164 787.051 141.818 781.875 141.818H688.125C682.949 141.818 678.75 146.164 678.75 151.512V187.131C678.75 187.99 679.449 188.693 680.312 188.693ZM722.539 204.318C722.539 211.205 728.119 216.789 734.998 216.814C741.875 216.779 747.461 211.213 747.461 204.318C747.461 197.424 741.875 191.857 735 191.818C728.125 191.857 722.539 197.424 722.539 204.318ZM744.316 204.318C744.316 209.467 740.129 213.67 735.006 213.689C729.863 213.674 725.684 209.474 725.684 204.318C725.684 199.176 729.865 194.974 735.006 194.947C740.137 194.982 744.316 199.182 744.316 204.318ZM739.648 223.068H730.371C722.578 223.068 716.25 229.611 716.25 237.658C716.25 239.943 718.066 241.818 720.312 241.818H749.668C751.934 241.818 753.75 239.943 753.75 237.658C753.75 229.611 747.422 223.068 739.648 223.068ZM749.688 238.693H720.312C719.805 238.693 719.375 238.224 719.375 237.658C719.375 231.33 724.297 226.193 730.371 226.193H739.648C745.703 226.193 750.625 231.33 750.625 237.658C750.625 238.224 750.195 238.693 749.688 238.693ZM783.398 223.068H774.121C766.328 223.068 760 229.611 760 237.658C760 239.943 761.816 241.818 764.062 241.818H793.418C795.684 241.818 797.5 239.943 797.5 237.658C797.5 229.611 791.172 223.068 783.398 223.068ZM793.438 238.693H764.082C763.555 238.693 763.125 238.224 763.125 237.658C763.125 231.33 768.047 226.193 774.121 226.193H783.398C789.453 226.193 794.375 231.33 794.375 237.658C794.375 238.224 793.945 238.693 793.438 238.693ZM695.898 223.068H686.621C678.832 223.068 672.5 229.611 672.5 237.658C672.5 239.943 674.324 241.818 676.568 241.818H705.924C708.184 241.818 710 239.943 710 237.658C710 229.611 703.672 223.068 695.898 223.068ZM705.938 238.693H676.568C676.049 238.693 675.625 238.224 675.625 237.658C675.625 231.33 680.553 226.193 686.611 226.193H695.889C701.953 226.193 706.875 231.33 706.875 237.658C706.875 238.224 706.445 238.693 705.938 238.693ZM678.791 204.318C678.791 211.205 684.371 216.789 691.25 216.814C698.125 216.779 703.711 211.213 703.711 204.318C703.711 197.424 698.125 191.857 691.25 191.818C684.371 191.857 678.791 197.424 678.791 204.318ZM700.566 204.318C700.566 209.467 696.379 213.67 691.256 213.689C686.115 213.674 681.928 209.474 681.928 204.318C681.928 199.176 686.109 194.974 691.25 194.947C696.387 194.982 700.566 199.182 700.566 204.318Z" />
        <path d="M662.777 253.818H667.328L672.135 265.545H672.34L677.147 253.818H681.698V271.273H678.118V259.912H677.973L673.456 271.187H671.019L666.502 259.869H666.357V271.273H662.777V253.818Z" />
        <path d="M688.403 271.52C687.568 271.52 686.824 271.375 686.17 271.085C685.517 270.79 685 270.355 684.619 269.781C684.244 269.202 684.056 268.48 684.056 267.616C684.056 266.889 684.19 266.278 684.457 265.784C684.724 265.29 685.088 264.892 685.548 264.591C686.008 264.29 686.531 264.062 687.116 263.909C687.707 263.756 688.326 263.648 688.974 263.585C689.735 263.506 690.349 263.432 690.815 263.364C691.281 263.29 691.619 263.182 691.829 263.04C692.039 262.898 692.145 262.687 692.145 262.409V262.358C692.145 261.818 691.974 261.4 691.633 261.105C691.298 260.81 690.821 260.662 690.201 260.662C689.548 260.662 689.028 260.807 688.642 261.097C688.255 261.381 688 261.739 687.875 262.17L684.517 261.898C684.687 261.102 685.022 260.415 685.522 259.835C686.022 259.25 686.667 258.801 687.457 258.489C688.252 258.17 689.173 258.011 690.218 258.011C690.946 258.011 691.642 258.097 692.306 258.267C692.977 258.437 693.571 258.702 694.088 259.06C694.61 259.418 695.022 259.878 695.323 260.44C695.625 260.997 695.775 261.665 695.775 262.443V271.273H692.332V269.457H692.23C692.02 269.866 691.738 270.227 691.386 270.54C691.034 270.847 690.61 271.088 690.116 271.264C689.622 271.435 689.051 271.52 688.403 271.52ZM689.443 269.014C689.977 269.014 690.449 268.909 690.858 268.699C691.267 268.483 691.588 268.193 691.821 267.829C692.054 267.466 692.17 267.054 692.17 266.594V265.204C692.056 265.278 691.9 265.347 691.701 265.409C691.508 265.466 691.289 265.52 691.045 265.571C690.801 265.616 690.556 265.659 690.312 265.699C690.068 265.733 689.846 265.764 689.647 265.793C689.221 265.855 688.849 265.954 688.531 266.091C688.213 266.227 687.966 266.412 687.789 266.645C687.613 266.872 687.525 267.156 687.525 267.497C687.525 267.991 687.704 268.369 688.062 268.631C688.426 268.886 688.886 269.014 689.443 269.014Z" />
        <path d="M698.592 271.273V258.182H702.112V260.466H702.248C702.487 259.653 702.887 259.04 703.45 258.625C704.012 258.204 704.66 257.994 705.393 257.994C705.575 257.994 705.771 258.006 705.981 258.028C706.191 258.051 706.376 258.082 706.535 258.122V261.344C706.365 261.293 706.129 261.247 705.828 261.207C705.527 261.168 705.251 261.148 705.001 261.148C704.467 261.148 703.99 261.264 703.569 261.497C703.155 261.724 702.825 262.043 702.581 262.452C702.342 262.861 702.223 263.332 702.223 263.866V271.273H698.592Z" />
        <path d="M711.702 267.506L711.711 263.151H712.239L716.432 258.182H720.6L714.966 264.761H714.105L711.702 267.506ZM708.412 271.273V253.818H712.043V271.273H708.412ZM716.594 271.273L712.742 265.571L715.162 263.006L720.847 271.273H716.594Z" />
        <path d="M727.808 271.528C726.461 271.528 725.302 271.256 724.331 270.71C723.365 270.159 722.62 269.381 722.098 268.375C721.575 267.364 721.314 266.168 721.314 264.787C721.314 263.44 721.575 262.258 722.098 261.241C722.62 260.224 723.356 259.432 724.305 258.864C725.26 258.295 726.379 258.011 727.663 258.011C728.527 258.011 729.331 258.151 730.075 258.429C730.825 258.702 731.478 259.114 732.035 259.665C732.598 260.216 733.035 260.909 733.348 261.744C733.66 262.574 733.816 263.545 733.816 264.659V265.656H722.762V263.406H730.399C730.399 262.883 730.285 262.42 730.058 262.017C729.831 261.614 729.515 261.298 729.112 261.071C728.714 260.838 728.251 260.722 727.723 260.722C727.172 260.722 726.683 260.849 726.257 261.105C725.836 261.355 725.507 261.693 725.268 262.119C725.029 262.54 724.907 263.008 724.902 263.526V265.665C724.902 266.312 725.021 266.872 725.26 267.344C725.504 267.815 725.848 268.179 726.291 268.435C726.734 268.69 727.26 268.818 727.868 268.818C728.271 268.818 728.64 268.761 728.976 268.648C729.311 268.534 729.598 268.364 729.836 268.136C730.075 267.909 730.257 267.631 730.382 267.301L733.74 267.523C733.569 268.329 733.22 269.034 732.691 269.636C732.169 270.233 731.493 270.699 730.663 271.034C729.839 271.364 728.887 271.528 727.808 271.528Z" />
        <path d="M743.149 258.182V260.909H735.265V258.182H743.149ZM737.055 255.045H740.686V267.25C740.686 267.585 740.737 267.847 740.839 268.034C740.941 268.216 741.083 268.344 741.265 268.418C741.453 268.491 741.669 268.528 741.913 268.528C742.083 268.528 742.254 268.514 742.424 268.486C742.595 268.452 742.725 268.426 742.816 268.409L743.387 271.111C743.206 271.168 742.95 271.233 742.62 271.307C742.291 271.386 741.89 271.435 741.419 271.452C740.544 271.486 739.777 271.369 739.118 271.102C738.464 270.835 737.956 270.42 737.592 269.858C737.228 269.295 737.049 268.585 737.055 267.727V255.045Z" />
        <path d="M745.514 276.182V258.182H749.093V260.381H749.255C749.414 260.028 749.645 259.67 749.946 259.307C750.252 258.937 750.65 258.631 751.139 258.386C751.633 258.136 752.247 258.011 752.98 258.011C753.934 258.011 754.815 258.261 755.622 258.761C756.429 259.256 757.074 260.003 757.556 261.003C758.039 261.997 758.281 263.244 758.281 264.744C758.281 266.204 758.045 267.437 757.573 268.443C757.108 269.443 756.471 270.202 755.664 270.719C754.863 271.23 753.966 271.486 752.971 271.486C752.267 271.486 751.667 271.369 751.173 271.136C750.684 270.903 750.284 270.611 749.971 270.258C749.659 269.9 749.42 269.54 749.255 269.176H749.145V276.182H745.514ZM749.068 264.727C749.068 265.506 749.176 266.185 749.392 266.764C749.608 267.344 749.92 267.795 750.329 268.119C750.738 268.437 751.235 268.597 751.821 268.597C752.412 268.597 752.912 268.435 753.321 268.111C753.73 267.781 754.039 267.327 754.25 266.747C754.466 266.162 754.573 265.489 754.573 264.727C754.573 263.972 754.468 263.307 754.258 262.733C754.048 262.159 753.738 261.71 753.329 261.386C752.92 261.062 752.417 260.901 751.821 260.901C751.23 260.901 750.73 261.057 750.321 261.369C749.917 261.682 749.608 262.125 749.392 262.699C749.176 263.273 749.068 263.949 749.068 264.727Z" />
        <path d="M764.332 253.818V271.273H760.701V253.818H764.332Z" />
        <path d="M770.973 271.52C770.138 271.52 769.394 271.375 768.74 271.085C768.087 270.79 767.57 270.355 767.189 269.781C766.814 269.202 766.627 268.48 766.627 267.616C766.627 266.889 766.76 266.278 767.027 265.784C767.294 265.29 767.658 264.892 768.118 264.591C768.579 264.29 769.101 264.062 769.686 263.909C770.277 263.756 770.897 263.648 771.544 263.585C772.306 263.506 772.919 263.432 773.385 263.364C773.851 263.29 774.189 263.182 774.4 263.04C774.61 262.898 774.715 262.687 774.715 262.409V262.358C774.715 261.818 774.544 261.4 774.203 261.105C773.868 260.81 773.391 260.662 772.772 260.662C772.118 260.662 771.598 260.807 771.212 261.097C770.826 261.381 770.57 261.739 770.445 262.17L767.087 261.898C767.257 261.102 767.593 260.415 768.093 259.835C768.593 259.25 769.238 258.801 770.027 258.489C770.823 258.17 771.743 258.011 772.789 258.011C773.516 258.011 774.212 258.097 774.877 258.267C775.547 258.437 776.141 258.702 776.658 259.06C777.181 259.418 777.593 259.878 777.894 260.44C778.195 260.997 778.346 261.665 778.346 262.443V271.273H774.902V269.457H774.8C774.59 269.866 774.309 270.227 773.956 270.54C773.604 270.847 773.181 271.088 772.686 271.264C772.192 271.435 771.621 271.52 770.973 271.52ZM772.013 269.014C772.547 269.014 773.019 268.909 773.428 268.699C773.837 268.483 774.158 268.193 774.391 267.829C774.624 267.466 774.74 267.054 774.74 266.594V265.204C774.627 265.278 774.471 265.347 774.272 265.409C774.078 265.466 773.86 265.52 773.615 265.571C773.371 265.616 773.127 265.659 772.882 265.699C772.638 265.733 772.417 265.764 772.218 265.793C771.792 265.855 771.419 265.954 771.101 266.091C770.783 266.227 770.536 266.412 770.36 266.645C770.184 266.872 770.096 267.156 770.096 267.497C770.096 267.991 770.274 268.369 770.632 268.631C770.996 268.886 771.456 269.014 772.013 269.014Z" />
        <path d="M787.077 271.528C785.736 271.528 784.583 271.244 783.617 270.676C782.657 270.102 781.918 269.307 781.401 268.29C780.89 267.273 780.634 266.102 780.634 264.778C780.634 263.437 780.892 262.261 781.409 261.25C781.932 260.233 782.674 259.44 783.634 258.872C784.594 258.298 785.736 258.011 787.06 258.011C788.202 258.011 789.202 258.219 790.06 258.633C790.918 259.048 791.597 259.631 792.097 260.381C792.597 261.131 792.873 262.011 792.924 263.023H789.497C789.401 262.369 789.145 261.844 788.73 261.446C788.321 261.043 787.784 260.841 787.12 260.841C786.557 260.841 786.066 260.994 785.645 261.301C785.23 261.602 784.907 262.043 784.674 262.622C784.441 263.202 784.324 263.903 784.324 264.727C784.324 265.562 784.438 266.273 784.665 266.858C784.898 267.443 785.225 267.889 785.645 268.196C786.066 268.503 786.557 268.656 787.12 268.656C787.534 268.656 787.907 268.571 788.236 268.401C788.571 268.23 788.847 267.983 789.063 267.659C789.284 267.329 789.429 266.935 789.497 266.474H792.924C792.867 267.474 792.594 268.355 792.105 269.116C791.623 269.872 790.955 270.463 790.103 270.889C789.25 271.315 788.242 271.528 787.077 271.528Z" />
        <path d="M801.214 271.528C799.868 271.528 798.708 271.256 797.737 270.71C796.771 270.159 796.027 269.381 795.504 268.375C794.981 267.364 794.72 266.168 794.72 264.787C794.72 263.44 794.981 262.258 795.504 261.241C796.027 260.224 796.762 259.432 797.711 258.864C798.666 258.295 799.785 258.011 801.069 258.011C801.933 258.011 802.737 258.151 803.481 258.429C804.231 258.702 804.885 259.114 805.441 259.665C806.004 260.216 806.441 260.909 806.754 261.744C807.066 262.574 807.223 263.545 807.223 264.659V265.656H796.169V263.406H803.805C803.805 262.883 803.691 262.42 803.464 262.017C803.237 261.614 802.922 261.298 802.518 261.071C802.12 260.838 801.657 260.722 801.129 260.722C800.578 260.722 800.089 260.849 799.663 261.105C799.243 261.355 798.913 261.693 798.674 262.119C798.436 262.54 798.314 263.008 798.308 263.526V265.665C798.308 266.312 798.427 266.872 798.666 267.344C798.91 267.815 799.254 268.179 799.697 268.435C800.14 268.69 800.666 268.818 801.274 268.818C801.677 268.818 802.046 268.761 802.382 268.648C802.717 268.534 803.004 268.364 803.243 268.136C803.481 267.909 803.663 267.631 803.788 267.301L807.146 267.523C806.975 268.329 806.626 269.034 806.098 269.636C805.575 270.233 804.899 270.699 804.069 271.034C803.245 271.364 802.294 271.528 801.214 271.528Z" />
        <path fill-rule="evenodd" clip-rule="evenodd" d="M819 112H651C643.82 112 638 117.82 638 125V293C638 300.18 643.82 306 651 306H819C826.18 306 832 300.18 832 293V125C832 117.82 826.18 112 819 112ZM651 109C642.163 109 635 116.163 635 125V293C635 301.837 642.163 309 651 309H819C827.837 309 835 301.837 835 293V125C835 116.163 827.837 109 819 109H651Z" />
        <path d="M900.498 475.029L843.566 453.135C843.2 453 842.81 453 842.443 453.135L785.512 475.029C782.516 476.2 780.502 479.13 780.502 482.157V551.472C780.502 552.331 781.204 553.034 782.064 553.034C782.925 553.034 783.627 552.332 783.627 551.472V482.157C783.627 480.4 784.836 478.642 786.631 477.958L843 456.269L899.365 477.948C901.162 478.642 902.373 480.4 902.373 482.157V551.472C902.373 552.332 903.075 553.034 903.936 553.034C904.796 553.034 905.498 552.331 905.498 551.472V482.157C905.498 479.13 903.486 476.2 900.498 475.029ZM882.061 490.36H803.939C801.357 490.36 799.251 492.466 799.251 495.048V551.472C799.251 552.331 799.953 553.034 800.814 553.034C801.675 553.034 802.376 552.332 802.376 551.472V495.048C802.376 494.187 803.078 493.485 803.939 493.485H882.061C882.922 493.485 883.624 494.187 883.624 495.048V551.472C883.624 552.332 884.326 553.034 885.186 553.034C886.047 553.034 886.749 552.331 886.749 551.472V495.048C886.749 492.645 884.639 490.36 882.061 490.36ZM835.188 534.285H813.313C810.724 534.285 808.626 536.384 808.626 538.972V548.347C808.626 550.944 810.716 553.034 813.313 553.034H835.188C837.778 553.034 839.875 550.934 839.875 548.347V538.972C839.875 536.374 837.785 534.285 835.188 534.285ZM836.75 548.347C836.75 549.208 836.049 549.909 835.188 549.909H813.313C812.454 549.909 811.751 549.206 811.751 548.347V538.972C811.751 538.11 812.452 537.41 813.313 537.41H835.188C836.047 537.41 836.75 538.113 836.75 538.972V548.347ZM835.188 509.285H813.313C810.716 509.285 808.626 511.375 808.626 513.973V523.347C808.626 525.945 810.716 528.035 813.313 528.035H835.188C837.778 528.035 839.875 525.935 839.875 523.347V513.973C839.875 511.375 837.785 509.285 835.188 509.285ZM836.75 523.347C836.75 524.209 836.049 524.91 835.188 524.91H813.313C812.454 524.91 811.751 524.207 811.751 523.347V513.973C811.751 513.113 812.454 512.41 813.313 512.41H835.188C836.047 512.41 836.75 513.113 836.75 513.973V523.347ZM872.687 534.285H850.812C848.223 534.285 846.125 536.384 846.125 538.972V548.347C846.125 550.934 848.223 553.034 850.812 553.034H872.687C875.276 553.034 877.374 550.934 877.374 548.347V538.972C877.374 536.374 875.284 534.285 872.687 534.285ZM874.249 548.347C874.249 549.208 873.548 549.909 872.687 549.909H850.812C849.951 549.909 849.25 549.208 849.25 548.347V538.972C849.25 538.11 849.951 537.41 850.812 537.41H872.687C873.548 537.41 874.249 538.11 874.249 538.972V548.347Z" />
        <path d="M828.219 582.966C826.947 582.966 825.813 582.747 824.819 582.31C823.83 581.866 823.049 581.259 822.475 580.486C821.907 579.707 821.614 578.81 821.597 577.793H825.313C825.336 578.219 825.475 578.594 825.731 578.918C825.992 579.236 826.339 579.483 826.771 579.659C827.202 579.835 827.688 579.923 828.228 579.923C828.79 579.923 829.288 579.824 829.719 579.625C830.151 579.426 830.489 579.151 830.734 578.798C830.978 578.446 831.1 578.04 831.1 577.58C831.1 577.114 830.969 576.702 830.708 576.344C830.452 575.98 830.083 575.696 829.6 575.491C829.123 575.287 828.555 575.185 827.896 575.185H826.268V572.474H827.896C828.452 572.474 828.944 572.378 829.37 572.185C829.802 571.991 830.137 571.724 830.376 571.383C830.614 571.037 830.734 570.634 830.734 570.173C830.734 569.736 830.629 569.352 830.418 569.023C830.214 568.687 829.924 568.426 829.549 568.239C829.18 568.051 828.748 567.957 828.254 567.957C827.754 567.957 827.296 568.048 826.881 568.23C826.467 568.406 826.134 568.659 825.884 568.989C825.634 569.318 825.501 569.705 825.484 570.148H821.947C821.964 569.142 822.251 568.256 822.807 567.489C823.364 566.722 824.114 566.122 825.057 565.69C826.006 565.253 827.077 565.034 828.271 565.034C829.475 565.034 830.529 565.253 831.432 565.69C832.336 566.128 833.038 566.719 833.538 567.463C834.043 568.202 834.293 569.031 834.288 569.952C834.293 570.929 833.989 571.744 833.376 572.398C832.768 573.051 831.975 573.466 830.998 573.642V573.778C832.282 573.943 833.259 574.389 833.93 575.116C834.606 575.838 834.941 576.741 834.935 577.827C834.941 578.821 834.654 579.705 834.075 580.477C833.501 581.25 832.708 581.858 831.697 582.301C830.685 582.744 829.526 582.966 828.219 582.966Z" />
        <path d="M837.69 582.727V565.273H844.577C845.901 565.273 847.028 565.526 847.96 566.031C848.892 566.531 849.602 567.227 850.091 568.119C850.585 569.006 850.832 570.028 850.832 571.187C850.832 572.347 850.582 573.369 850.082 574.256C849.582 575.142 848.858 575.832 847.909 576.327C846.966 576.821 845.824 577.068 844.483 577.068H840.094V574.111H843.886C844.597 574.111 845.182 573.989 845.642 573.744C846.108 573.494 846.455 573.151 846.682 572.713C846.915 572.27 847.031 571.761 847.031 571.187C847.031 570.608 846.915 570.102 846.682 569.67C846.455 569.233 846.108 568.895 845.642 568.656C845.176 568.412 844.585 568.29 843.869 568.29H841.381V582.727H837.69Z" />
        <path d="M853.229 582.727V565.273H856.92V579.685H864.403V582.727H853.229Z" />
        <path fill-rule="evenodd" clip-rule="evenodd" d="M927 421H759C751.82 421 746 426.82 746 434V602C746 609.18 751.82 615 759 615H927C934.18 615 940 609.18 940 602V434C940 426.82 934.18 421 927 421ZM759 418C750.163 418 743 425.163 743 434V602C743 610.837 750.163 618 759 618H927C935.837 618 943 610.837 943 602V434C943 425.163 935.837 418 927 418H759Z" />
        <path fill-rule="evenodd" clip-rule="evenodd" d="M771 717H603C595.82 717 590 722.82 590 730V898C590 905.18 595.82 911 603 911H771C778.18 911 784 905.18 784 898V730C784 722.82 778.18 717 771 717ZM603 714C594.163 714 587 721.163 587 730V898C587 906.837 594.163 914 603 914H771C779.837 914 787 906.837 787 898V730C787 721.163 779.837 714 771 714H603Z" />
        <path d="M716.542 795.137C715.681 795.137 714.98 795.836 714.98 796.7V818.574H658.906V796.7C658.906 795.836 658.204 795.137 657.344 795.137C656.484 795.137 655.781 795.84 655.781 796.7V820.137C655.781 821.001 656.483 821.699 657.343 821.699H716.698C717.558 821.699 718.26 821.001 718.26 820.137V796.7C718.104 795.84 717.577 795.137 716.542 795.137ZM737.733 766.974L726.538 749.263C725.55 747.686 723.756 746.699 721.864 746.699H652.188C650.295 746.699 648.504 747.681 647.514 749.263L636.315 766.974C633.454 771.329 633.122 777.13 635.409 782.032C637.065 785.587 639.856 788.126 643.287 789.434L643.283 837.324C643.283 842.502 647.483 846.699 652.482 846.699H721.251C726.426 846.699 730.45 842.502 730.45 837.324L730.443 789.434C733.874 788.13 736.654 785.585 738.31 782.046C740.936 777.149 740.604 771.505 737.733 766.974ZM727.479 837.324C727.479 840.769 724.676 843.574 721.231 843.574H652.656C649.211 843.574 646.408 840.769 646.408 837.324L646.444 790.294C646.427 790.291 646.463 790.296 646.444 790.294C647.227 790.391 648.027 790.45 648.82 790.45C653.66 790.45 658.303 788.388 661.553 784.792C664.805 788.38 669.433 790.45 674.277 790.45C679.117 790.45 683.759 788.388 687.009 784.792C690.253 788.38 694.902 790.45 699.745 790.45C704.587 790.45 709.227 788.388 712.477 784.792C715.565 788.38 720.37 790.45 725.194 790.45C726.003 790.45 726.779 790.396 727.555 790.295C727.587 790.291 727.606 790.276 727.638 790.271V837.324H727.479ZM735.819 780.724C734.131 784.335 730.969 786.696 727.149 787.202C726.503 787.286 725.858 787.325 725.194 787.325C721.249 787.325 717.452 785.636 714.776 782.69L712.458 780.14L710.145 782.698C707.499 785.645 703.69 787.325 699.745 787.325C695.79 787.325 691.995 785.638 689.339 782.696L687.011 780.138L684.687 782.696C682.031 785.645 678.066 787.325 674.277 787.325C670.332 787.325 666.543 785.645 663.867 782.696L661.562 780.138L659.238 782.696C656.582 785.645 652.793 787.325 648.828 787.325C648.171 787.325 647.516 787.28 646.884 787.198C643.074 786.681 639.924 784.317 638.239 780.724C636.405 776.778 636.674 772.267 638.965 768.654L650.166 750.933C650.586 750.246 651.367 749.826 652.188 749.826H721.854C722.679 749.826 723.455 750.246 723.885 750.935L735.079 768.645C737.381 772.267 737.655 776.778 735.819 780.724Z" />
        <path d="M667.69 863.957C667.621 863.27 667.329 862.736 666.812 862.355C666.295 861.974 665.593 861.784 664.707 861.784C664.104 861.784 663.596 861.869 663.181 862.04C662.766 862.205 662.448 862.435 662.227 862.73C662.011 863.026 661.903 863.361 661.903 863.736C661.891 864.048 661.957 864.321 662.099 864.554C662.246 864.787 662.448 864.989 662.704 865.159C662.959 865.324 663.255 865.469 663.59 865.594C663.925 865.713 664.283 865.815 664.664 865.901L666.232 866.276C666.994 866.446 667.692 866.673 668.329 866.957C668.965 867.241 669.516 867.591 669.982 868.006C670.448 868.42 670.809 868.909 671.065 869.472C671.326 870.034 671.459 870.679 671.465 871.406C671.459 872.474 671.187 873.401 670.647 874.185C670.113 874.963 669.34 875.568 668.329 876C667.323 876.426 666.11 876.639 664.69 876.639C663.28 876.639 662.053 876.423 661.008 875.991C659.968 875.56 659.155 874.92 658.57 874.074C657.991 873.222 657.687 872.168 657.658 870.912H661.229C661.269 871.497 661.437 871.986 661.732 872.378C662.033 872.764 662.434 873.057 662.934 873.256C663.44 873.449 664.011 873.545 664.647 873.545C665.272 873.545 665.815 873.455 666.275 873.273C666.741 873.091 667.101 872.838 667.357 872.514C667.613 872.19 667.741 871.818 667.741 871.398C667.741 871.006 667.624 870.676 667.391 870.409C667.164 870.142 666.829 869.915 666.386 869.727C665.948 869.54 665.411 869.369 664.775 869.216L662.874 868.739C661.403 868.381 660.241 867.821 659.388 867.06C658.536 866.298 658.113 865.273 658.119 863.983C658.113 862.926 658.394 862.003 658.962 861.213C659.536 860.423 660.323 859.807 661.323 859.364C662.323 858.92 663.459 858.699 664.732 858.699C666.028 858.699 667.158 858.92 668.124 859.364C669.096 859.807 669.852 860.423 670.391 861.213C670.931 862.003 671.209 862.918 671.227 863.957H667.69Z" />
        <path d="M677.51 868.824V876.392H673.879V858.938H677.408V865.611H677.561C677.856 864.838 678.334 864.233 678.993 863.795C679.652 863.352 680.479 863.131 681.473 863.131C682.382 863.131 683.175 863.33 683.851 863.727C684.533 864.119 685.061 864.685 685.436 865.423C685.817 866.156 686.004 867.034 685.999 868.057V876.392H682.368V868.705C682.374 867.898 682.169 867.27 681.754 866.821C681.345 866.372 680.771 866.148 680.033 866.148C679.538 866.148 679.101 866.253 678.72 866.463C678.345 866.673 678.05 866.98 677.834 867.383C677.624 867.781 677.516 868.261 677.51 868.824Z" />
        <path d="M694.771 876.648C693.447 876.648 692.302 876.366 691.336 875.804C690.376 875.236 689.634 874.446 689.111 873.435C688.589 872.418 688.327 871.239 688.327 869.898C688.327 868.545 688.589 867.364 689.111 866.352C689.634 865.335 690.376 864.545 691.336 863.983C692.302 863.415 693.447 863.131 694.771 863.131C696.094 863.131 697.236 863.415 698.197 863.983C699.163 864.545 699.907 865.335 700.43 866.352C700.952 867.364 701.214 868.545 701.214 869.898C701.214 871.239 700.952 872.418 700.43 873.435C699.907 874.446 699.163 875.236 698.197 875.804C697.236 876.366 696.094 876.648 694.771 876.648ZM694.788 873.835C695.39 873.835 695.893 873.665 696.296 873.324C696.7 872.977 697.004 872.506 697.208 871.909C697.418 871.312 697.523 870.633 697.523 869.872C697.523 869.111 697.418 868.432 697.208 867.835C697.004 867.239 696.7 866.767 696.296 866.42C695.893 866.074 695.39 865.901 694.788 865.901C694.18 865.901 693.668 866.074 693.253 866.42C692.844 866.767 692.535 867.239 692.325 867.835C692.12 868.432 692.018 869.111 692.018 869.872C692.018 870.633 692.12 871.312 692.325 871.909C692.535 872.506 692.844 872.977 693.253 873.324C693.668 873.665 694.18 873.835 694.788 873.835Z" />
        <path d="M703.575 881.301V863.301H707.154V865.5H707.316C707.475 865.148 707.705 864.79 708.006 864.426C708.313 864.057 708.711 863.75 709.2 863.506C709.694 863.256 710.307 863.131 711.04 863.131C711.995 863.131 712.876 863.381 713.682 863.881C714.489 864.375 715.134 865.122 715.617 866.122C716.1 867.116 716.342 868.364 716.342 869.864C716.342 871.324 716.106 872.557 715.634 873.562C715.168 874.562 714.532 875.321 713.725 875.838C712.924 876.349 712.026 876.605 711.032 876.605C710.327 876.605 709.728 876.489 709.234 876.256C708.745 876.023 708.344 875.73 708.032 875.378C707.719 875.02 707.481 874.659 707.316 874.295H707.205V881.301H703.575ZM707.128 869.847C707.128 870.625 707.236 871.304 707.452 871.883C707.668 872.463 707.981 872.915 708.39 873.239C708.799 873.557 709.296 873.716 709.881 873.716C710.472 873.716 710.972 873.554 711.381 873.23C711.79 872.901 712.1 872.446 712.31 871.866C712.526 871.281 712.634 870.608 712.634 869.847C712.634 869.091 712.529 868.426 712.319 867.852C712.109 867.278 711.799 866.83 711.39 866.506C710.981 866.182 710.478 866.02 709.881 866.02C709.29 866.02 708.79 866.176 708.381 866.489C707.978 866.801 707.668 867.244 707.452 867.818C707.236 868.392 707.128 869.068 707.128 869.847Z" />
        <path fill-rule="evenodd" clip-rule="evenodd" d="M771 717H603C595.82 717 590 722.82 590 730V898C590 905.18 595.82 911 603 911H771C778.18 911 784 905.18 784 898V730C784 722.82 778.18 717 771 717ZM603 714C594.163 714 587 721.163 587 730V898C587 906.837 594.163 914 603 914H771C779.837 914 787 906.837 787 898V730C787 721.163 779.837 714 771 714H603Z" />
        <path fill-rule="evenodd" clip-rule="evenodd" d="M420 617H252C244.82 617 239 622.82 239 630V798C239 805.18 244.82 811 252 811H420C427.18 811 433 805.18 433 798V630C433 622.82 427.18 617 420 617ZM252 614C243.163 614 236 621.163 236 630V798C236 806.837 243.163 814 252 814H420C428.837 814 436 806.837 436 798V630C436 621.163 428.837 614 420 614H252Z" />
        <path d="M392.358 699.024C392.358 698.593 392.181 698.161 391.832 697.852L336.953 649.422C336.656 649.159 336.284 649.026 335.912 649.026C335.54 649.026 335.168 649.159 334.871 649.422L280.168 697.848C279.819 698.162 279.642 698.593 279.642 699.024C279.642 699.871 280.324 700.59 281.204 700.59C281.576 700.59 281.949 700.459 282.251 700.198L292.186 691.541L292.188 736.658C292.188 743.585 297.804 749.026 304.556 749.026H367.097C374.026 749.026 379.464 743.41 379.464 736.658L379.465 691.541L389.4 700.198C389.7 700.461 390.068 700.593 390.441 700.593C391.848 700.592 392.358 699.887 392.358 699.024ZM376.855 736.655C376.855 741.851 372.643 745.887 367.624 745.887H304.553C299.357 745.887 295.321 741.675 295.321 736.655V688.754L336.088 652.515L376.855 688.754V736.655ZM323.368 699.024C323.368 705.951 328.983 711.392 335.735 711.392C342.487 711.392 348.103 705.776 348.103 699.024C348.103 692.272 342.487 686.657 335.735 686.657C328.983 686.657 323.368 692.106 323.368 699.024ZM345.32 699.024C345.32 704.212 341.1 708.256 336.088 708.256C330.9 708.256 326.857 704.036 326.857 699.024C326.857 693.836 331.077 689.793 336.088 689.793C341.282 689.617 345.32 693.831 345.32 699.024ZM329.64 717.84C320.981 717.84 314.137 724.86 314.137 733.343C314.137 735.075 315.541 736.302 317.096 736.302H354.551C356.283 736.302 357.51 734.898 357.51 733.343C357.51 724.684 350.49 717.84 342.007 717.84H329.64ZM354.727 733.519H317.096C317.096 726.603 322.723 721.152 329.464 721.152H341.831C349.279 720.976 354.727 726.601 354.727 733.519Z" />
        <path d="M294.32 767.375H290.587C290.518 766.892 290.379 766.463 290.169 766.088C289.959 765.707 289.689 765.384 289.359 765.117C289.03 764.849 288.649 764.645 288.217 764.503C287.791 764.361 287.328 764.29 286.828 764.29C285.925 764.29 285.138 764.514 284.467 764.963C283.797 765.406 283.277 766.054 282.908 766.906C282.538 767.753 282.354 768.781 282.354 769.992C282.354 771.236 282.538 772.281 282.908 773.128C283.283 773.974 283.805 774.614 284.476 775.045C285.146 775.477 285.922 775.693 286.803 775.693C287.297 775.693 287.754 775.628 288.175 775.497C288.601 775.367 288.979 775.176 289.308 774.926C289.638 774.67 289.91 774.361 290.126 773.997C290.348 773.634 290.501 773.219 290.587 772.753L294.32 772.77C294.223 773.571 293.982 774.344 293.595 775.088C293.214 775.827 292.7 776.489 292.053 777.074C291.411 777.653 290.643 778.114 289.751 778.455C288.865 778.79 287.862 778.957 286.743 778.957C285.186 778.957 283.794 778.605 282.567 777.901C281.345 777.196 280.379 776.176 279.669 774.841C278.964 773.506 278.612 771.889 278.612 769.992C278.612 768.088 278.97 766.469 279.686 765.134C280.402 763.798 281.374 762.781 282.601 762.082C283.828 761.378 285.209 761.026 286.743 761.026C287.754 761.026 288.692 761.168 289.555 761.452C290.425 761.736 291.195 762.151 291.865 762.696C292.536 763.236 293.081 763.898 293.501 764.682C293.928 765.466 294.2 766.364 294.32 767.375Z" />
        <path d="M305.293 773.145V765.628H308.923V778.719H305.438V776.341H305.301C305.006 777.108 304.514 777.724 303.827 778.19C303.145 778.656 302.312 778.889 301.33 778.889C300.455 778.889 299.685 778.69 299.02 778.293C298.355 777.895 297.835 777.33 297.46 776.597C297.091 775.864 296.903 774.986 296.898 773.963V765.628H300.528V773.315C300.534 774.088 300.741 774.699 301.151 775.148C301.56 775.597 302.108 775.821 302.795 775.821C303.233 775.821 303.642 775.722 304.023 775.523C304.403 775.318 304.71 775.017 304.943 774.619C305.182 774.222 305.298 773.73 305.293 773.145Z" />
        <path d="M322.719 769.361L319.396 769.565C319.339 769.281 319.217 769.026 319.029 768.798C318.842 768.565 318.594 768.381 318.288 768.244C317.986 768.102 317.626 768.031 317.205 768.031C316.643 768.031 316.168 768.151 315.782 768.389C315.396 768.622 315.202 768.935 315.202 769.327C315.202 769.639 315.327 769.903 315.577 770.119C315.827 770.335 316.256 770.509 316.864 770.639L319.234 771.117C320.506 771.378 321.455 771.798 322.08 772.378C322.705 772.957 323.018 773.719 323.018 774.662C323.018 775.52 322.765 776.273 322.259 776.92C321.759 777.568 321.072 778.074 320.197 778.438C319.327 778.795 318.325 778.974 317.188 778.974C315.455 778.974 314.075 778.614 313.046 777.892C312.023 777.165 311.424 776.176 311.248 774.926L314.819 774.739C314.927 775.267 315.188 775.67 315.603 775.949C316.018 776.222 316.549 776.358 317.197 776.358C317.833 776.358 318.344 776.236 318.731 775.992C319.123 775.742 319.322 775.42 319.327 775.028C319.322 774.699 319.183 774.429 318.91 774.219C318.637 774.003 318.217 773.838 317.648 773.724L315.381 773.273C314.103 773.017 313.151 772.574 312.526 771.943C311.907 771.312 311.597 770.509 311.597 769.531C311.597 768.69 311.825 767.966 312.279 767.358C312.739 766.75 313.384 766.281 314.214 765.952C315.049 765.622 316.026 765.457 317.146 765.457C318.799 765.457 320.1 765.807 321.049 766.506C322.004 767.205 322.56 768.156 322.719 769.361Z" />
        <path d="M332.267 765.628V768.355H324.384V765.628H332.267ZM326.173 762.492H329.804V774.696C329.804 775.031 329.855 775.293 329.957 775.48C330.06 775.662 330.202 775.79 330.384 775.864C330.571 775.938 330.787 775.974 331.031 775.974C331.202 775.974 331.372 775.96 331.543 775.932C331.713 775.898 331.844 775.872 331.935 775.855L332.506 778.557C332.324 778.614 332.068 778.679 331.739 778.753C331.409 778.832 331.009 778.881 330.537 778.898C329.662 778.932 328.895 778.815 328.236 778.548C327.582 778.281 327.074 777.866 326.71 777.304C326.347 776.741 326.168 776.031 326.173 775.173V762.492Z" />
        <path d="M340.406 778.974C339.082 778.974 337.937 778.693 336.972 778.131C336.011 777.562 335.27 776.773 334.747 775.761C334.224 774.744 333.963 773.565 333.963 772.224C333.963 770.872 334.224 769.69 334.747 768.679C335.27 767.662 336.011 766.872 336.972 766.31C337.937 765.742 339.082 765.457 340.406 765.457C341.73 765.457 342.872 765.742 343.832 766.31C344.798 766.872 345.543 767.662 346.065 768.679C346.588 769.69 346.849 770.872 346.849 772.224C346.849 773.565 346.588 774.744 346.065 775.761C345.543 776.773 344.798 777.562 343.832 778.131C342.872 778.693 341.73 778.974 340.406 778.974ZM340.423 776.162C341.026 776.162 341.528 775.991 341.932 775.651C342.335 775.304 342.639 774.832 342.844 774.236C343.054 773.639 343.159 772.96 343.159 772.199C343.159 771.437 343.054 770.759 342.844 770.162C342.639 769.565 342.335 769.094 341.932 768.747C341.528 768.401 341.026 768.227 340.423 768.227C339.815 768.227 339.304 768.401 338.889 768.747C338.48 769.094 338.17 769.565 337.96 770.162C337.756 770.759 337.653 771.437 337.653 772.199C337.653 772.96 337.756 773.639 337.96 774.236C338.17 774.832 338.48 775.304 338.889 775.651C339.304 775.991 339.815 776.162 340.423 776.162Z" />
        <path d="M349.21 778.719V765.628H352.67V767.938H352.824C353.097 767.17 353.551 766.565 354.188 766.122C354.824 765.679 355.585 765.457 356.472 765.457C357.369 765.457 358.134 765.682 358.764 766.131C359.395 766.574 359.815 767.176 360.026 767.938H360.162C360.429 767.188 360.912 766.588 361.611 766.139C362.315 765.685 363.148 765.457 364.108 765.457C365.33 765.457 366.321 765.847 367.082 766.625C367.849 767.398 368.233 768.494 368.233 769.915V778.719H364.611V770.631C364.611 769.903 364.418 769.358 364.031 768.994C363.645 768.631 363.162 768.449 362.582 768.449C361.923 768.449 361.409 768.659 361.04 769.08C360.67 769.494 360.486 770.043 360.486 770.724V778.719H356.966V770.554C356.966 769.912 356.781 769.401 356.412 769.02C356.048 768.639 355.568 768.449 354.972 768.449C354.568 768.449 354.205 768.551 353.881 768.756C353.562 768.955 353.31 769.236 353.122 769.599C352.935 769.957 352.841 770.378 352.841 770.861V778.719H349.21Z" />
        <path d="M377.067 778.974C375.72 778.974 374.561 778.702 373.589 778.156C372.624 777.605 371.879 776.827 371.357 775.821C370.834 774.81 370.572 773.614 370.572 772.233C370.572 770.886 370.834 769.705 371.357 768.688C371.879 767.67 372.615 766.878 373.564 766.31C374.518 765.742 375.638 765.457 376.922 765.457C377.786 765.457 378.589 765.597 379.334 765.875C380.084 766.148 380.737 766.56 381.294 767.111C381.857 767.662 382.294 768.355 382.607 769.19C382.919 770.02 383.075 770.991 383.075 772.105V773.102H372.021V770.852H379.658C379.658 770.33 379.544 769.866 379.317 769.463C379.089 769.06 378.774 768.744 378.371 768.517C377.973 768.284 377.51 768.168 376.982 768.168C376.43 768.168 375.942 768.295 375.516 768.551C375.095 768.801 374.766 769.139 374.527 769.565C374.288 769.986 374.166 770.455 374.161 770.972V773.111C374.161 773.759 374.28 774.318 374.518 774.79C374.763 775.261 375.107 775.625 375.55 775.881C375.993 776.136 376.518 776.264 377.126 776.264C377.53 776.264 377.899 776.207 378.234 776.094C378.57 775.98 378.857 775.81 379.095 775.582C379.334 775.355 379.516 775.077 379.641 774.747L382.999 774.969C382.828 775.776 382.479 776.48 381.95 777.082C381.428 777.679 380.751 778.145 379.922 778.48C379.098 778.81 378.146 778.974 377.067 778.974Z" />
        <path d="M385.445 778.719V765.628H388.964V767.912H389.101C389.339 767.099 389.74 766.486 390.303 766.071C390.865 765.651 391.513 765.44 392.246 765.44C392.428 765.44 392.624 765.452 392.834 765.474C393.044 765.497 393.229 765.528 393.388 765.568V768.79C393.217 768.739 392.982 768.693 392.68 768.653C392.379 768.614 392.104 768.594 391.854 768.594C391.32 768.594 390.842 768.71 390.422 768.943C390.007 769.17 389.678 769.489 389.433 769.898C389.195 770.307 389.075 770.778 389.075 771.312V778.719H385.445Z" />
        <path d="M886.75 209C862.59 209 843 215.996 843 224.625V293.375C843 302.004 862.59 309 886.75 309C910.91 309 930.5 302.004 930.5 293.375V224.625C930.5 215.996 910.91 209 886.75 209ZM927.199 272.613C922.551 276.91 906.77 280.875 886.574 280.875C866.379 280.875 850.773 276.908 845.949 272.609V245.035C853.963 250.055 870.637 252.75 886.574 252.75C902.512 252.75 919.367 250.059 927.023 245.043V272.613H927.199ZM886.574 212.125C911.203 212.125 927.199 219.527 927.199 224.625V241.359C922.551 245.66 906.77 249.625 886.574 249.625C866.379 249.625 850.773 245.658 845.949 241.359V224.625C845.949 219.527 861.951 212.125 886.574 212.125ZM886.574 305.875C861.945 305.875 845.949 298.473 845.949 293.375V276.293C853.963 281.305 870.637 284 886.574 284C902.512 284 919.367 281.309 927.023 276.293V293.375C927.199 298.473 911.379 305.875 886.574 305.875Z" />
        <path d="M992.75 484C968.59 484 949 490.996 949 499.625V568.375C949 577.004 968.59 584 992.75 584C1016.91 584 1036.5 577.004 1036.5 568.375V499.625C1036.5 490.996 1016.91 484 992.75 484ZM1033.2 547.613C1028.55 551.91 1012.77 555.875 992.574 555.875C972.379 555.875 956.773 551.908 951.949 547.609V520.035C959.963 525.055 976.637 527.75 992.574 527.75C1008.51 527.75 1025.37 525.059 1033.02 520.043V547.613H1033.2ZM992.574 487.125C1017.2 487.125 1033.2 494.527 1033.2 499.625V516.359C1028.55 520.66 1012.77 524.625 992.574 524.625C972.379 524.625 956.773 520.658 951.949 516.359V499.625C951.949 494.527 967.951 487.125 992.574 487.125ZM992.574 580.875C967.945 580.875 951.949 573.473 951.949 568.375V551.293C959.963 556.305 976.637 559 992.574 559C1008.51 559 1025.37 556.309 1033.02 551.293V568.375C1033.2 573.473 1017.38 580.875 992.574 580.875Z" />
        <path d="M838.75 767C814.59 767 795 773.996 795 782.625V851.375C795 860.004 814.59 867 838.75 867C862.91 867 882.5 860.004 882.5 851.375V782.625C882.5 773.996 862.91 767 838.75 767ZM879.199 830.613C874.551 834.91 858.77 838.875 838.574 838.875C818.379 838.875 802.773 834.908 797.949 830.609V803.035C805.963 808.055 822.637 810.75 838.574 810.75C854.512 810.75 871.367 808.059 879.023 803.043V830.613H879.199ZM838.574 770.125C863.203 770.125 879.199 777.527 879.199 782.625V799.359C874.551 803.66 858.77 807.625 838.574 807.625C818.379 807.625 802.773 803.658 797.949 799.359V782.625C797.949 777.527 813.951 770.125 838.574 770.125ZM838.574 863.875C813.945 863.875 797.949 856.473 797.949 851.375V834.293C805.963 839.305 822.637 842 838.574 842C854.512 842 871.367 839.309 879.023 834.293V851.375C879.199 856.473 863.379 863.875 838.574 863.875Z" />
        <path fill-rule="evenodd" clip-rule="evenodd" d="M223.889 516.85L209 508L224.109 499.531L224.018 506.698C260.665 507.358 350.449 509.57 445.168 511.903C557.853 514.679 677.522 517.627 723.016 518.339L723.089 511.187L738 520L722.912 528.507L722.986 521.339C677.531 520.628 557.758 517.678 445.011 514.901C350.31 512.568 260.565 510.357 223.98 509.698L223.889 516.85Z" />
        <path fill-rule="evenodd" clip-rule="evenodd" d="M458.413 718.605L444 709L459.525 701.32L459.058 708.581C474.824 711.007 485.707 717.33 494.02 725.66C502.523 734.18 508.289 744.761 513.861 755.132C513.98 755.353 514.099 755.574 514.218 755.795C525.082 776.021 535.51 795.434 564.15 800.325L564.636 793.321L579 803L563.436 810.6L563.941 803.332C533.626 798.278 522.529 777.612 511.701 757.449C511.54 757.15 511.379 756.851 511.219 756.552C505.619 746.13 500.041 735.94 491.896 727.779C484.078 719.944 473.852 713.944 458.865 711.587L458.413 718.605Z" />
        <path fill-rule="evenodd" clip-rule="evenodd" d="M855.992 398.634L848 414L838.689 399.395L845.527 399.094C841.082 381.8 826.309 361.494 808.457 344.417C792.742 329.384 774.906 317.107 760.111 311.666C758.113 315.543 753.366 317.112 749.445 315.167C745.487 313.204 743.87 308.403 745.833 304.445C747.796 300.487 752.597 298.87 756.555 300.833C759.618 302.352 761.279 305.571 760.964 308.784C776.392 314.412 794.654 327.061 810.531 342.249C828.713 359.642 844.118 380.699 848.586 398.96L855.992 398.634Z" />
        <path fill-rule="evenodd" clip-rule="evenodd" d="M460.322 687.741L446 678L461.597 670.468L461.069 677.618C471.671 678.478 483.42 679.546 496.03 680.692C551.343 685.72 623.249 692.255 687.854 689.38C727.87 687.6 764.94 682.212 793.456 670.694C819.132 660.322 837.692 645.065 845.395 623.142C841.473 621.163 839.878 616.387 841.833 612.445C843.796 608.487 848.596 606.87 852.554 608.833C856.513 610.796 858.13 615.596 856.167 619.555C854.658 622.596 851.474 624.255 848.285 623.97C840.241 647.068 820.787 662.889 794.58 673.475C765.596 685.183 728.127 690.592 687.988 692.378C623.154 695.262 550.975 688.701 495.663 683.672C483.092 682.529 471.392 681.466 460.848 680.61L460.322 687.741Z" />
        <path fill-rule="evenodd" clip-rule="evenodd" d="M503.198 408.811C504.432 408.052 505.476 406.949 506.167 405.555C508.13 401.596 506.513 396.796 502.555 394.833C498.596 392.87 493.796 394.487 491.833 398.445C489.87 402.404 491.487 407.204 495.445 409.167C497.038 409.957 498.767 410.167 500.393 409.878C515.928 447.482 545.696 472.395 583.733 485.921C623.789 500.166 673.019 501.795 724.592 492.426L726.022 499.47L739 488L722.577 482.496L723.996 489.485C672.795 498.778 624.147 497.11 584.738 483.095C547.41 469.82 518.375 445.479 503.198 408.811Z" />
        <path fill-rule="evenodd" clip-rule="evenodd" d="M99.6805 441.931L92.5158 441.38L100 457L109.785 442.708L102.672 442.161C114.029 324.494 174.2 215.449 265.537 155.267C356.889 95.0738 479.608 83.632 616.315 161.672L612.68 167.817L630 168L621.498 152.91L617.843 159.09C480.228 80.5155 356.274 91.8861 263.886 152.761C171.673 213.522 111.097 323.471 99.6805 441.931Z" />
        <path fill-rule="evenodd" clip-rule="evenodd" d="M107.197 561.279L117 547L124.465 562.629L117.363 562.074C114.365 620.459 124.998 717.85 186.663 792.849C248.63 868.215 362.446 921.337 566.956 888.984L565.777 881.933L582 888L568.634 899.016L567.451 891.943C362.21 924.418 247.183 871.178 184.346 794.754C121.986 718.91 111.34 620.595 114.371 561.84L107.197 561.279Z" />
        <path d="M721.513 417.527L708.004 402.788C704.951 399.469 700.643 397.571 696.134 397.571H681V383.286C681 375.395 674.605 369 666.714 369H595.286C587.395 369 581 375.395 581 383.286V436.857C581 442.208 583.978 446.817 588.333 449.263C588.266 449.893 588.143 450.496 588.143 451.143C588.143 461.009 596.138 469 606 469C613.112 469 619.199 464.812 622.071 458.797C624.951 464.804 631.022 469 638.143 469C648.004 469 656 461.004 656 451.143H673.857C673.857 461.004 681.853 469 691.714 469C701.576 469 709.571 461.004 709.571 451.143H714.929C719.853 451.143 723.857 447.138 723.857 442.214V423.576C723.857 421.321 723.009 419.179 721.513 417.527ZM681 401.143H696.143C699.638 401.143 703 402.622 705.357 405.196L718.009 419H681V401.143ZM606 465.429C598.123 465.429 591.714 459.02 591.714 451.143C591.513 443.263 598.123 436.857 606 436.857C613.877 436.857 620.286 443.266 620.286 450.942C620.286 459.022 613.879 465.429 606 465.429ZM638.143 465.429C630.266 465.429 623.857 459.02 623.857 451.143C623.857 443.266 630.266 436.857 637.942 436.857C645.618 436.857 652.429 443.263 652.429 451.143C652.429 459.022 646.022 465.429 638.143 465.429ZM655.643 447.571C653.79 439.424 646.781 433.286 638.143 433.286C631.031 433.286 624.944 437.473 622.071 443.487C619.192 437.482 613.121 433.286 606 433.286C598.092 433.286 591.46 438.462 589.114 445.585C586.375 443.643 584.571 440.473 584.571 436.857V383.286C584.571 377.377 589.377 372.571 595.286 372.571H666.714C672.623 372.571 677.429 377.377 677.429 383.286V440.518C675.888 442.594 674.549 444.96 674.214 447.571H655.643ZM691.714 465.429C683.837 465.429 677.429 459.02 677.429 451.143C677.429 443.266 683.837 436.857 691.714 436.857C699.592 436.857 706 443.266 706 450.942C706 459.022 699.594 465.429 691.714 465.429ZM720.286 442.214C720.286 445.167 717.879 447.571 714.929 447.571H709.212C707.557 439.42 700.355 433.286 691.714 433.286C687.674 433.286 683.991 434.677 681 436.938V422.571H720.286V442.214Z" />
        <path d="M541.008 826.008C540.155 825.838 539.333 826.356 539.147 827.191L530.227 867.334C529.106 872.372 524.723 875.889 519.568 875.889H464.718C459.563 875.889 455.181 872.374 454.06 867.334L445.148 827.178C444.963 826.184 444.144 825.833 443.288 826.008C442.446 826.203 441.915 827.022 442.102 827.861L451.022 868.004C452.463 874.477 458.09 879 464.718 879H519.562C526.191 879 531.825 874.479 533.266 868.008L542.186 827.865C542.393 827.022 541.847 826.203 541.008 826.008ZM546.74 816.436L517.008 816.437L501.385 779.939C501.041 779.147 500.124 778.794 499.334 779.123C498.542 779.458 498.177 780.378 498.515 781.17L513.625 816.419H470.684L485.794 781.17C486.132 780.378 485.767 779.458 484.975 779.123C484.183 778.787 483.26 779.322 482.909 780.12L467.292 816.436H437.56C436.698 816.436 436 817.136 436 817.995C436 818.854 436.698 819.555 437.56 819.555H465.947L459.513 834.704C459.175 835.496 459.54 836.416 460.332 836.751C460.546 836.849 460.741 836.712 460.956 836.712C461.559 836.712 462.134 836.359 462.39 835.768L469.339 819.554H514.961L521.909 835.768C521.999 836.537 522.74 836.712 523.344 836.712C523.551 836.712 523.759 836.669 523.96 836.584C524.752 836.249 525.117 835.329 524.779 834.537L518.359 819.554H546.74C547.602 819.554 548.3 818.853 548.3 817.994C548.3 817.135 547.598 816.436 546.74 816.436Z" />
        <path d="M571.158 615.75C572.018 615.75 572.72 615.051 572.72 614.188V561.062C572.72 555.031 577.626 550.125 583.658 550.125H624.283C625.142 550.125 625.845 549.426 625.845 548.562C625.845 547.699 625.142 547 624.283 547H583.658C575.904 547 569.595 553.309 569.595 561.062V614.188C569.595 615.047 570.298 615.75 571.158 615.75ZM603.97 603.25C591.888 603.25 582.271 613.057 582.271 625.145C582.271 625.127 582.271 625.162 582.271 625.145C574.361 625.275 566.492 626.394 558.853 628.477L502.154 643.938C501.318 644.163 500.829 645.024 501.055 645.857C501.089 646.551 501.718 647 502.408 647C502.542 647 502.682 646.982 502.817 646.945L559.516 631.484C566.983 629.447 574.684 628.396 582.426 628.291C583.951 638.855 592.974 647 603.97 647C616.052 647 625.845 637.207 625.845 625.125C625.845 613.043 616.06 603.25 603.97 603.25ZM603.97 643.875C593.63 643.875 585.22 635.463 585.22 625.125C585.22 614.785 593.63 606.375 603.97 606.375C614.31 606.375 622.72 614.785 622.72 625.125C622.72 635.457 614.302 643.875 603.97 643.875ZM509.855 617.352C510.652 620.328 513.847 622.756 517.513 621.771L553.744 612.051C557.079 611.156 559.056 607.73 558.16 604.393L550.044 574.207C549.322 571.492 546.841 569.578 544.009 569.578C543.464 569.579 542.919 569.65 542.39 569.792L506.187 579.48C502.859 580.379 500.876 583.816 501.767 587.137L509.855 617.352ZM529.634 576.434L533.261 590.025L524.224 592.449L520.591 578.855L529.634 576.434ZM506.996 582.508L517.58 579.676L521.201 593.266C521.607 594.759 523.205 595.949 525.027 595.473L534.066 593.059C535.747 592.605 536.724 590.887 536.275 589.227L532.642 575.633L543.206 572.801C543.477 572.728 543.741 572.695 544.009 572.695C545.388 572.695 546.65 573.614 547.025 575.009L555.13 605.185C555.578 606.852 554.588 608.566 552.921 609.013L516.691 618.736C514.887 619.22 513.269 618.054 512.861 616.527L504.787 586.336C504.341 584.676 505.329 582.957 506.996 582.508Z" />
        <path d="M273.75 201.25H311.25C314.701 201.25 317.5 198.451 317.5 195V192.188C317.5 186.838 313.164 182.5 307.812 182.5C306.191 175.367 300.059 170 292.5 170C284.941 170 278.633 175.367 277.188 182.5C271.838 182.5 267.5 186.838 267.5 192.188V195C267.5 198.457 270.299 201.25 273.75 201.25ZM270.625 192.188C270.625 188.564 273.564 185.625 277.188 185.625H279.742L280.103 183.849C281.076 179.053 284.452 174.832 289.181 173.566C296.394 171.636 303.353 176.267 304.745 183.123L305.254 185.625H307.809C311.27 185.625 314.375 188.564 314.375 192.188V195C314.375 196.726 312.976 198.125 311.25 198.125H273.75C272.023 198.125 270.625 196.719 270.625 195V192.188ZM292.5 188.75C294.226 188.75 295.625 187.351 295.625 185.625C295.625 183.898 294.219 182.5 292.5 182.5C290.781 182.5 289.375 183.898 289.375 185.625C289.375 187.352 290.781 188.75 292.5 188.75ZM315.938 218.438H294.062C293.203 218.438 292.5 219.141 292.5 220C292.5 220.859 293.202 221.562 294.062 221.562H315.938C316.797 221.562 317.5 220.859 317.5 220C317.5 219.141 316.797 218.438 315.938 218.438ZM270.625 245C270.625 246.726 272.024 248.125 273.75 248.125C275.476 248.125 276.875 246.726 276.875 245C276.875 243.274 275.476 241.875 273.75 241.875C272.024 241.875 270.625 243.281 270.625 245ZM324.375 189.531C323.575 189.196 322.666 189.543 322.318 190.343C321.977 191.13 322.337 192.052 323.13 192.4C325.41 193.398 326.875 195.645 326.875 198.125V260.625C326.875 264.074 324.074 266.875 320.625 266.875H264.375C260.926 266.875 258.125 264.074 258.125 260.625V198.125C258.125 195.646 259.596 193.4 261.879 192.4C262.666 192.059 263.026 191.137 262.679 190.344C262.336 189.551 261.434 189.184 260.621 189.551C257.209 191.035 255 194.238 255 198.125V260.625C255 265.801 259.205 270 264.375 270H320.625C325.795 270 330 265.795 330 260.625V198.125C330 194.395 327.793 191.016 324.375 189.531ZM315.938 243.438H287.812C286.953 243.438 286.25 244.141 286.25 245C286.25 245.859 286.952 246.562 287.812 246.562H315.938C316.798 246.562 317.5 245.864 317.5 245C317.5 244.136 316.797 243.438 315.938 243.438ZM272.645 227.363C272.951 227.656 273.348 227.812 273.75 227.812C274.152 227.812 274.55 227.66 274.855 227.355L287.355 214.855C287.965 214.244 287.965 213.255 287.355 212.646C286.744 212.036 285.755 212.035 285.146 212.646L273.75 224.043L268.605 218.887C267.995 218.276 267.006 218.276 266.396 218.887C265.787 219.497 265.786 220.486 266.396 221.096L272.645 227.363Z" />
    </symbol>
</svg>