<svg viewBox="0 0 600 191">
    <path
        d="M2.64206 117H0.392059L4.48865 105.364H7.09092L11.1932 117H8.9432L5.83524 107.75H5.74433L2.64206 117ZM2.71592 112.438H8.85229V114.131H2.71592V112.438Z"
    />
    <path
        d="M12.7259 117V105.364H14.7827V109.716H14.8679C14.974 109.504 15.1236 109.278 15.3168 109.04C15.51 108.797 15.7713 108.591 16.1009 108.42C16.4304 108.246 16.8509 108.159 17.3622 108.159C18.0365 108.159 18.6444 108.331 19.1861 108.676C19.7315 109.017 20.1634 109.523 20.4815 110.193C20.8035 110.86 20.9645 111.678 20.9645 112.648C20.9645 113.606 20.8073 114.42 20.4929 115.091C20.1785 115.761 19.7505 116.273 19.2088 116.625C18.6672 116.977 18.0535 117.153 17.3679 117.153C16.8679 117.153 16.4531 117.07 16.1236 116.903C15.794 116.737 15.5289 116.536 15.3281 116.301C15.1312 116.063 14.9778 115.837 14.8679 115.625H14.7486V117H12.7259ZM14.7429 112.636C14.7429 113.201 14.8225 113.695 14.9815 114.119C15.1444 114.544 15.3774 114.875 15.6804 115.114C15.9872 115.348 16.3584 115.466 16.794 115.466C17.2486 115.466 17.6293 115.345 17.9361 115.102C18.2429 114.856 18.474 114.521 18.6293 114.097C18.7884 113.669 18.8679 113.182 18.8679 112.636C18.8679 112.095 18.7903 111.614 18.635 111.193C18.4797 110.773 18.2486 110.443 17.9418 110.205C17.635 109.966 17.2524 109.847 16.794 109.847C16.3547 109.847 15.9815 109.962 15.6747 110.193C15.3679 110.424 15.135 110.748 14.9759 111.165C14.8206 111.581 14.7429 112.072 14.7429 112.636Z"
    />
    <path
        d="M29.6108 110.58L27.7358 110.784C27.6828 110.595 27.59 110.417 27.4574 110.25C27.3286 110.083 27.1544 109.949 26.9347 109.847C26.715 109.744 26.446 109.693 26.1279 109.693C25.6998 109.693 25.34 109.786 25.0483 109.972C24.7604 110.157 24.6184 110.398 24.6222 110.693C24.6184 110.947 24.7112 111.153 24.9006 111.313C25.0938 111.472 25.4119 111.602 25.8551 111.705L27.3438 112.023C28.1695 112.201 28.7832 112.483 29.1847 112.869C29.59 113.256 29.7945 113.761 29.7983 114.386C29.7945 114.936 29.6335 115.42 29.3154 115.841C29.001 116.258 28.5635 116.583 28.0029 116.818C27.4422 117.053 26.7983 117.17 26.071 117.17C25.0029 117.17 24.143 116.947 23.4915 116.5C22.84 116.049 22.4517 115.422 22.3267 114.619L24.3324 114.426C24.4233 114.82 24.6165 115.117 24.9119 115.318C25.2074 115.519 25.5919 115.619 26.0654 115.619C26.554 115.619 26.946 115.519 27.2415 115.318C27.5407 115.117 27.6904 114.869 27.6904 114.574C27.6904 114.324 27.5938 114.117 27.4006 113.955C27.2112 113.792 26.9157 113.667 26.5142 113.58L25.0256 113.267C24.1885 113.093 23.5691 112.799 23.1676 112.386C22.7661 111.97 22.5672 111.443 22.571 110.807C22.5672 110.269 22.7131 109.803 23.0085 109.409C23.3078 109.011 23.7226 108.705 24.2529 108.489C24.7869 108.269 25.4025 108.159 26.0994 108.159C27.1222 108.159 27.9271 108.377 28.5142 108.813C29.1051 109.248 29.4707 109.837 29.6108 110.58Z"
    />
    <path
        d="M35.8523 108.273V109.864H30.8352V108.273H35.8523ZM32.0739 106.182H34.1307V114.375C34.1307 114.652 34.1724 114.864 34.2557 115.011C34.3428 115.155 34.4565 115.254 34.5966 115.307C34.7368 115.36 34.8921 115.386 35.0625 115.386C35.1913 115.386 35.3087 115.377 35.4148 115.358C35.5246 115.339 35.608 115.322 35.6648 115.307L36.0114 116.915C35.9015 116.953 35.7443 116.994 35.5398 117.04C35.339 117.085 35.0928 117.112 34.8012 117.119C34.286 117.134 33.822 117.057 33.4091 116.886C32.9962 116.712 32.6686 116.443 32.4262 116.08C32.1875 115.716 32.0701 115.261 32.0739 114.716V106.182Z"
    />
    <path
        d="M37.5725 117V108.273H39.5668V109.727H39.6577C39.8168 109.223 40.0895 108.835 40.4759 108.563C40.866 108.286 41.3111 108.148 41.8111 108.148C41.9247 108.148 42.0516 108.153 42.1918 108.165C42.3357 108.172 42.455 108.186 42.5497 108.205V110.097C42.4626 110.066 42.3244 110.04 42.135 110.017C41.9494 109.991 41.7694 109.977 41.5952 109.977C41.2202 109.977 40.8831 110.059 40.5838 110.222C40.2884 110.381 40.0554 110.602 39.885 110.886C39.7145 111.17 39.6293 111.498 39.6293 111.869V117H37.5725Z"
    />
    <path
        d="M46.2713 117.176C45.7183 117.176 45.2202 117.078 44.777 116.881C44.3376 116.68 43.9891 116.384 43.7315 115.994C43.4778 115.604 43.3509 115.123 43.3509 114.551C43.3509 114.059 43.4418 113.652 43.6236 113.33C43.8054 113.008 44.0535 112.75 44.3679 112.557C44.6823 112.364 45.0365 112.218 45.4304 112.119C45.8281 112.017 46.2391 111.943 46.6634 111.898C47.1747 111.845 47.5895 111.797 47.9077 111.756C48.2259 111.71 48.4569 111.642 48.6009 111.551C48.7486 111.456 48.8225 111.311 48.8225 111.114V111.08C48.8225 110.652 48.6956 110.32 48.4418 110.085C48.188 109.85 47.8225 109.733 47.3452 109.733C46.8414 109.733 46.4418 109.843 46.1463 110.063C45.8547 110.282 45.6577 110.542 45.5554 110.841L43.635 110.568C43.7865 110.038 44.0365 109.595 44.385 109.239C44.7334 108.879 45.1596 108.61 45.6634 108.432C46.1672 108.25 46.724 108.159 47.3338 108.159C47.7543 108.159 48.1728 108.208 48.5895 108.307C49.0062 108.405 49.3869 108.568 49.7315 108.795C50.0762 109.019 50.3528 109.324 50.5611 109.71C50.7732 110.097 50.8793 110.58 50.8793 111.159V117H48.902V115.801H48.8338C48.7088 116.044 48.5327 116.271 48.3054 116.483C48.0819 116.691 47.7997 116.86 47.4588 116.989C47.1217 117.114 46.7259 117.176 46.2713 117.176ZM46.8054 115.665C47.2183 115.665 47.5762 115.583 47.8793 115.42C48.1823 115.254 48.4153 115.034 48.5781 114.761C48.7448 114.489 48.8281 114.191 48.8281 113.869V112.841C48.7637 112.894 48.6539 112.943 48.4986 112.989C48.3471 113.034 48.1766 113.074 47.9872 113.108C47.7978 113.142 47.6103 113.172 47.4247 113.199C47.2391 113.225 47.0781 113.248 46.9418 113.267C46.635 113.309 46.3603 113.377 46.1179 113.472C45.8755 113.566 45.6842 113.699 45.544 113.869C45.4039 114.036 45.3338 114.252 45.3338 114.517C45.3338 114.896 45.4721 115.182 45.7486 115.375C46.0251 115.568 46.3774 115.665 46.8054 115.665Z"
    />
    <path
        d="M56.7543 117.17C55.8831 117.17 55.135 116.979 54.51 116.597C53.8887 116.214 53.4096 115.686 53.0725 115.011C52.7391 114.333 52.5725 113.553 52.5725 112.67C52.5725 111.784 52.7429 111.002 53.0838 110.324C53.4247 109.642 53.9058 109.112 54.527 108.733C55.152 108.35 55.8906 108.159 56.7429 108.159C57.4512 108.159 58.0781 108.29 58.6236 108.551C59.1728 108.809 59.6103 109.174 59.9361 109.648C60.2619 110.117 60.4475 110.667 60.4929 111.295H58.527C58.4475 110.875 58.2581 110.525 57.9588 110.244C57.6634 109.96 57.2675 109.818 56.7713 109.818C56.3509 109.818 55.9815 109.932 55.6634 110.159C55.3452 110.383 55.0971 110.705 54.919 111.125C54.7448 111.545 54.6577 112.049 54.6577 112.636C54.6577 113.231 54.7448 113.742 54.919 114.17C55.0933 114.595 55.3376 114.922 55.652 115.153C55.9702 115.381 56.3433 115.494 56.7713 115.494C57.0744 115.494 57.3452 115.438 57.5838 115.324C57.8262 115.206 58.0289 115.038 58.1918 114.818C58.3547 114.598 58.4664 114.331 58.527 114.017H60.4929C60.4437 114.634 60.2619 115.182 59.9475 115.659C59.6331 116.133 59.205 116.504 58.6634 116.773C58.1217 117.038 57.4853 117.17 56.7543 117.17Z"
    />
    <path
        d="M66.5398 108.273V109.864H61.5227V108.273H66.5398ZM62.7614 106.182H64.8182V114.375C64.8182 114.652 64.8599 114.864 64.9432 115.011C65.0303 115.155 65.144 115.254 65.2841 115.307C65.4243 115.36 65.5796 115.386 65.75 115.386C65.8788 115.386 65.9962 115.377 66.1023 115.358C66.2121 115.339 66.2955 115.322 66.3523 115.307L66.6989 116.915C66.589 116.953 66.4318 116.994 66.2273 117.04C66.0265 117.085 65.7803 117.112 65.4887 117.119C64.9735 117.134 64.5095 117.057 64.0966 116.886C63.6837 116.712 63.3561 116.443 63.1137 116.08C62.875 115.716 62.7576 115.261 62.7614 114.716V106.182Z"
    />
    <path
        d="M536.108 109.29H533.983C533.922 108.941 533.811 108.633 533.648 108.364C533.485 108.091 533.282 107.86 533.04 107.67C532.797 107.481 532.521 107.339 532.21 107.244C531.903 107.146 531.572 107.097 531.216 107.097C530.583 107.097 530.023 107.256 529.534 107.574C529.045 107.888 528.663 108.35 528.386 108.96C528.11 109.566 527.972 110.307 527.972 111.182C527.972 112.072 528.11 112.822 528.386 113.432C528.667 114.038 529.049 114.496 529.534 114.807C530.023 115.114 530.581 115.267 531.21 115.267C531.559 115.267 531.884 115.222 532.188 115.131C532.494 115.036 532.769 114.898 533.011 114.716C533.258 114.534 533.464 114.311 533.631 114.045C533.801 113.78 533.919 113.477 533.983 113.136L536.108 113.148C536.028 113.701 535.856 114.22 535.591 114.705C535.33 115.189 534.987 115.617 534.563 115.989C534.138 116.356 533.642 116.644 533.074 116.852C532.506 117.057 531.875 117.159 531.182 117.159C530.159 117.159 529.246 116.922 528.443 116.449C527.64 115.975 527.008 115.292 526.545 114.398C526.083 113.504 525.852 112.432 525.852 111.182C525.852 109.928 526.085 108.856 526.551 107.966C527.017 107.072 527.652 106.388 528.455 105.915C529.258 105.441 530.167 105.205 531.182 105.205C531.83 105.205 532.432 105.295 532.989 105.477C533.545 105.659 534.042 105.926 534.477 106.278C534.913 106.627 535.271 107.055 535.551 107.562C535.835 108.066 536.021 108.642 536.108 109.29Z"
    />
    <path
        d="M541.754 117.17C540.902 117.17 540.163 116.983 539.538 116.608C538.913 116.233 538.429 115.708 538.084 115.034C537.743 114.36 537.572 113.572 537.572 112.67C537.572 111.769 537.743 110.979 538.084 110.301C538.429 109.623 538.913 109.097 539.538 108.722C540.163 108.347 540.902 108.159 541.754 108.159C542.607 108.159 543.345 108.347 543.97 108.722C544.595 109.097 545.078 109.623 545.419 110.301C545.764 110.979 545.936 111.769 545.936 112.67C545.936 113.572 545.764 114.36 545.419 115.034C545.078 115.708 544.595 116.233 543.97 116.608C543.345 116.983 542.607 117.17 541.754 117.17ZM541.766 115.523C542.228 115.523 542.614 115.396 542.925 115.142C543.235 114.884 543.466 114.54 543.618 114.108C543.773 113.676 543.851 113.195 543.851 112.665C543.851 112.131 543.773 111.648 543.618 111.216C543.466 110.78 543.235 110.434 542.925 110.176C542.614 109.919 542.228 109.79 541.766 109.79C541.292 109.79 540.898 109.919 540.584 110.176C540.273 110.434 540.04 110.78 539.885 111.216C539.733 111.648 539.658 112.131 539.658 112.665C539.658 113.195 539.733 113.676 539.885 114.108C540.04 114.54 540.273 114.884 540.584 115.142C540.898 115.396 541.292 115.523 541.766 115.523Z"
    />
    <path
        d="M549.739 111.886V117H547.682V108.273H549.648V109.756H549.75C549.951 109.267 550.271 108.879 550.71 108.591C551.153 108.303 551.701 108.159 552.352 108.159C552.955 108.159 553.479 108.288 553.926 108.545C554.377 108.803 554.725 109.176 554.972 109.665C555.222 110.153 555.345 110.746 555.341 111.443V117H553.284V111.761C553.284 111.178 553.133 110.722 552.83 110.392C552.53 110.062 552.116 109.898 551.585 109.898C551.225 109.898 550.905 109.977 550.625 110.136C550.349 110.292 550.131 110.517 549.972 110.812C549.816 111.108 549.739 111.466 549.739 111.886Z"
    />
    <path
        d="M561.239 117.17C560.367 117.17 559.619 116.979 558.994 116.597C558.373 116.214 557.894 115.686 557.557 115.011C557.224 114.333 557.057 113.553 557.057 112.67C557.057 111.784 557.227 111.002 557.568 110.324C557.909 109.642 558.39 109.112 559.011 108.733C559.636 108.35 560.375 108.159 561.227 108.159C561.936 108.159 562.563 108.29 563.108 108.551C563.657 108.809 564.095 109.174 564.42 109.648C564.746 110.117 564.932 110.667 564.977 111.295H563.011C562.932 110.875 562.742 110.525 562.443 110.244C562.148 109.96 561.752 109.818 561.256 109.818C560.835 109.818 560.466 109.932 560.148 110.159C559.83 110.383 559.581 110.705 559.403 111.125C559.229 111.545 559.142 112.049 559.142 112.636C559.142 113.231 559.229 113.742 559.403 114.17C559.578 114.595 559.822 114.922 560.136 115.153C560.455 115.381 560.828 115.494 561.256 115.494C561.559 115.494 561.83 115.437 562.068 115.324C562.311 115.206 562.513 115.038 562.676 114.818C562.839 114.598 562.951 114.331 563.011 114.017H564.977C564.928 114.634 564.746 115.182 564.432 115.659C564.117 116.133 563.689 116.504 563.148 116.773C562.606 117.038 561.97 117.17 561.239 117.17Z"
    />
    <path
        d="M566.666 117V108.273H568.661V109.727H568.751C568.911 109.223 569.183 108.835 569.57 108.562C569.96 108.286 570.405 108.148 570.905 108.148C571.018 108.148 571.145 108.153 571.286 108.165C571.429 108.172 571.549 108.186 571.643 108.205V110.097C571.556 110.066 571.418 110.04 571.229 110.017C571.043 109.991 570.863 109.977 570.689 109.977C570.314 109.977 569.977 110.059 569.678 110.222C569.382 110.381 569.149 110.602 568.979 110.886C568.808 111.17 568.723 111.498 568.723 111.869V117H566.666Z"
    />
    <path
        d="M576.514 117.17C575.639 117.17 574.884 116.989 574.247 116.625C573.615 116.258 573.128 115.739 572.787 115.068C572.446 114.394 572.276 113.6 572.276 112.687C572.276 111.79 572.446 111.002 572.787 110.324C573.132 109.642 573.613 109.112 574.23 108.733C574.848 108.35 575.573 108.159 576.406 108.159C576.944 108.159 577.452 108.246 577.929 108.42C578.41 108.591 578.834 108.856 579.202 109.216C579.573 109.576 579.865 110.034 580.077 110.591C580.289 111.144 580.395 111.803 580.395 112.568V113.199H573.242V111.812H578.423C578.42 111.419 578.334 111.068 578.168 110.761C578.001 110.451 577.768 110.206 577.469 110.028C577.173 109.85 576.829 109.761 576.435 109.761C576.014 109.761 575.645 109.864 575.327 110.068C575.009 110.269 574.76 110.534 574.582 110.864C574.408 111.189 574.319 111.547 574.315 111.937V113.148C574.315 113.655 574.408 114.091 574.594 114.455C574.779 114.814 575.039 115.091 575.372 115.284C575.706 115.473 576.096 115.568 576.543 115.568C576.842 115.568 577.113 115.526 577.355 115.443C577.598 115.356 577.808 115.229 577.986 115.062C578.164 114.896 578.298 114.689 578.389 114.443L580.31 114.659C580.188 115.167 579.957 115.61 579.617 115.989C579.279 116.364 578.848 116.655 578.321 116.864C577.795 117.068 577.192 117.17 576.514 117.17Z"
    />
    <path
        d="M586.493 108.273V109.864H581.476V108.273H586.493ZM582.715 106.182H584.771V114.375C584.771 114.651 584.813 114.864 584.896 115.011C584.983 115.155 585.097 115.254 585.237 115.307C585.377 115.36 585.533 115.386 585.703 115.386C585.832 115.386 585.949 115.377 586.055 115.358C586.165 115.339 586.249 115.322 586.305 115.307L586.652 116.915C586.542 116.953 586.385 116.994 586.18 117.04C585.98 117.085 585.733 117.112 585.442 117.119C584.927 117.134 584.463 117.057 584.05 116.886C583.637 116.712 583.309 116.443 583.067 116.08C582.828 115.716 582.711 115.261 582.715 114.716V106.182Z"
    />
    <path
        d="M591.983 117.17C591.108 117.17 590.352 116.989 589.716 116.625C589.083 116.258 588.597 115.739 588.256 115.068C587.915 114.394 587.744 113.6 587.744 112.687C587.744 111.79 587.915 111.002 588.256 110.324C588.6 109.642 589.081 109.112 589.699 108.733C590.316 108.35 591.042 108.159 591.875 108.159C592.413 108.159 592.92 108.246 593.398 108.42C593.879 108.591 594.303 108.856 594.67 109.216C595.042 109.576 595.333 110.034 595.545 110.591C595.758 111.144 595.864 111.803 595.864 112.568V113.199H588.71V111.812H593.892C593.888 111.419 593.803 111.068 593.636 110.761C593.47 110.451 593.237 110.206 592.938 110.028C592.642 109.85 592.297 109.761 591.903 109.761C591.483 109.761 591.114 109.864 590.795 110.068C590.477 110.269 590.229 110.534 590.051 110.864C589.877 111.189 589.788 111.547 589.784 111.937V113.148C589.784 113.655 589.877 114.091 590.063 114.455C590.248 114.814 590.508 115.091 590.841 115.284C591.174 115.473 591.564 115.568 592.011 115.568C592.311 115.568 592.581 115.526 592.824 115.443C593.066 115.356 593.277 115.229 593.455 115.062C593.633 114.896 593.767 114.689 593.858 114.443L595.778 114.659C595.657 115.167 595.426 115.61 595.085 115.989C594.748 116.364 594.316 116.655 593.79 116.864C593.263 117.068 592.661 117.17 591.983 117.17Z"
    />
    <path
        d="M279.472 173.562C279.419 173.066 279.195 172.68 278.801 172.403C278.411 172.127 277.903 171.989 277.278 171.989C276.839 171.989 276.462 172.055 276.148 172.187C275.833 172.32 275.593 172.5 275.426 172.727C275.259 172.955 275.174 173.214 275.17 173.506C275.17 173.748 275.225 173.958 275.335 174.136C275.449 174.314 275.602 174.466 275.795 174.591C275.989 174.712 276.203 174.814 276.437 174.898C276.672 174.981 276.909 175.051 277.148 175.108L278.239 175.381C278.678 175.483 279.1 175.621 279.506 175.795C279.915 175.97 280.28 176.189 280.602 176.455C280.928 176.72 281.186 177.04 281.375 177.415C281.564 177.79 281.659 178.229 281.659 178.733C281.659 179.415 281.485 180.015 281.136 180.534C280.788 181.049 280.284 181.453 279.625 181.744C278.97 182.032 278.176 182.176 277.244 182.176C276.339 182.176 275.553 182.036 274.886 181.756C274.223 181.475 273.705 181.066 273.33 180.528C272.958 179.991 272.758 179.335 272.727 178.562H274.801C274.831 178.968 274.956 179.305 275.176 179.574C275.396 179.843 275.682 180.044 276.034 180.176C276.39 180.309 276.788 180.375 277.227 180.375C277.686 180.375 278.087 180.307 278.432 180.17C278.78 180.03 279.053 179.837 279.25 179.591C279.447 179.341 279.547 179.049 279.551 178.716C279.547 178.413 279.458 178.163 279.284 177.966C279.11 177.765 278.866 177.598 278.551 177.466C278.241 177.33 277.877 177.208 277.46 177.102L276.136 176.761C275.178 176.515 274.42 176.142 273.864 175.642C273.311 175.138 273.034 174.47 273.034 173.636C273.034 172.951 273.22 172.35 273.591 171.835C273.966 171.32 274.475 170.92 275.119 170.636C275.763 170.348 276.492 170.205 277.307 170.205C278.133 170.205 278.856 170.348 279.477 170.636C280.102 170.92 280.593 171.316 280.949 171.824C281.305 172.328 281.489 172.907 281.5 173.562H279.472Z"
    />
    <path
        d="M285.504 176.886V182H283.447V170.364H285.459V174.756H285.561C285.766 174.263 286.082 173.875 286.51 173.591C286.942 173.303 287.491 173.159 288.158 173.159C288.764 173.159 289.292 173.286 289.743 173.54C290.194 173.794 290.542 174.165 290.788 174.653C291.038 175.142 291.163 175.739 291.163 176.443V182H289.107V176.761C289.107 176.174 288.955 175.718 288.652 175.392C288.353 175.062 287.932 174.898 287.391 174.898C287.027 174.898 286.701 174.977 286.413 175.136C286.129 175.292 285.906 175.517 285.743 175.812C285.584 176.108 285.504 176.466 285.504 176.886Z"
    />
    <path
        d="M295.771 182.176C295.218 182.176 294.72 182.078 294.277 181.881C293.838 181.68 293.489 181.384 293.232 180.994C292.978 180.604 292.851 180.123 292.851 179.551C292.851 179.059 292.942 178.651 293.124 178.33C293.305 178.008 293.553 177.75 293.868 177.557C294.182 177.364 294.536 177.218 294.93 177.119C295.328 177.017 295.739 176.943 296.163 176.898C296.675 176.845 297.089 176.797 297.408 176.756C297.726 176.71 297.957 176.642 298.101 176.551C298.249 176.456 298.322 176.311 298.322 176.114V176.08C298.322 175.651 298.196 175.32 297.942 175.085C297.688 174.85 297.322 174.733 296.845 174.733C296.341 174.733 295.942 174.843 295.646 175.062C295.355 175.282 295.158 175.542 295.055 175.841L293.135 175.568C293.286 175.038 293.536 174.595 293.885 174.239C294.233 173.879 294.66 173.61 295.163 173.432C295.667 173.25 296.224 173.159 296.834 173.159C297.254 173.159 297.673 173.208 298.089 173.307C298.506 173.405 298.887 173.568 299.232 173.795C299.576 174.019 299.853 174.324 300.061 174.71C300.273 175.097 300.379 175.58 300.379 176.159V182H298.402V180.801H298.334C298.209 181.044 298.033 181.271 297.805 181.483C297.582 181.691 297.3 181.86 296.959 181.989C296.622 182.114 296.226 182.176 295.771 182.176ZM296.305 180.665C296.718 180.665 297.076 180.583 297.379 180.42C297.682 180.254 297.915 180.034 298.078 179.761C298.245 179.489 298.328 179.191 298.328 178.869V177.841C298.264 177.894 298.154 177.943 297.999 177.989C297.847 178.034 297.677 178.074 297.487 178.108C297.298 178.142 297.11 178.172 296.925 178.199C296.739 178.225 296.578 178.248 296.442 178.267C296.135 178.309 295.86 178.377 295.618 178.472C295.375 178.566 295.184 178.699 295.044 178.869C294.904 179.036 294.834 179.252 294.834 179.517C294.834 179.896 294.972 180.182 295.249 180.375C295.525 180.568 295.877 180.665 296.305 180.665Z"
    />
    <path
        d="M302.447 185.273V173.273H304.47V174.716H304.589C304.696 174.504 304.845 174.278 305.038 174.04C305.232 173.797 305.493 173.591 305.822 173.42C306.152 173.246 306.572 173.159 307.084 173.159C307.758 173.159 308.366 173.331 308.908 173.676C309.453 174.017 309.885 174.523 310.203 175.193C310.525 175.86 310.686 176.678 310.686 177.648C310.686 178.606 310.529 179.42 310.214 180.091C309.9 180.761 309.472 181.273 308.93 181.625C308.389 181.977 307.775 182.153 307.089 182.153C306.589 182.153 306.175 182.07 305.845 181.903C305.516 181.737 305.25 181.536 305.05 181.301C304.853 181.062 304.699 180.837 304.589 180.625H304.504V185.273H302.447ZM304.464 177.636C304.464 178.201 304.544 178.695 304.703 179.119C304.866 179.544 305.099 179.875 305.402 180.114C305.709 180.348 306.08 180.466 306.516 180.466C306.97 180.466 307.351 180.345 307.658 180.102C307.964 179.856 308.196 179.521 308.351 179.097C308.51 178.669 308.589 178.182 308.589 177.636C308.589 177.095 308.512 176.614 308.357 176.193C308.201 175.773 307.97 175.443 307.663 175.205C307.357 174.966 306.974 174.847 306.516 174.847C306.076 174.847 305.703 174.962 305.396 175.193C305.089 175.424 304.857 175.748 304.697 176.165C304.542 176.581 304.464 177.072 304.464 177.636Z"
    />
    <path
        d="M316.311 182.17C315.436 182.17 314.68 181.989 314.044 181.625C313.411 181.258 312.925 180.739 312.584 180.068C312.243 179.394 312.072 178.6 312.072 177.687C312.072 176.79 312.243 176.002 312.584 175.324C312.928 174.642 313.41 174.112 314.027 173.733C314.644 173.35 315.37 173.159 316.203 173.159C316.741 173.159 317.249 173.246 317.726 173.42C318.207 173.591 318.631 173.856 318.999 174.216C319.37 174.576 319.661 175.034 319.874 175.591C320.086 176.144 320.192 176.803 320.192 177.568V178.199H313.038V176.812H318.22C318.216 176.419 318.131 176.068 317.964 175.761C317.798 175.451 317.565 175.206 317.266 175.028C316.97 174.85 316.625 174.761 316.232 174.761C315.811 174.761 315.442 174.864 315.124 175.068C314.805 175.269 314.557 175.534 314.379 175.864C314.205 176.189 314.116 176.547 314.112 176.937V178.148C314.112 178.655 314.205 179.091 314.391 179.455C314.576 179.814 314.836 180.091 315.169 180.284C315.502 180.473 315.893 180.568 316.339 180.568C316.639 180.568 316.91 180.526 317.152 180.443C317.394 180.356 317.605 180.229 317.783 180.062C317.961 179.896 318.095 179.689 318.186 179.443L320.107 179.659C319.985 180.167 319.754 180.61 319.413 180.989C319.076 181.364 318.644 181.655 318.118 181.864C317.591 182.068 316.989 182.17 316.311 182.17Z"
    />
    <path
        d="M325.17 182.153C324.485 182.153 323.871 181.977 323.33 181.625C322.788 181.273 322.36 180.761 322.045 180.091C321.731 179.42 321.574 178.606 321.574 177.648C321.574 176.678 321.733 175.86 322.051 175.193C322.373 174.523 322.807 174.017 323.352 173.676C323.898 173.331 324.506 173.159 325.176 173.159C325.687 173.159 326.108 173.246 326.437 173.42C326.767 173.591 327.028 173.797 327.222 174.04C327.415 174.278 327.564 174.504 327.67 174.716H327.756V170.364H329.818V182H327.795V180.625H327.67C327.564 180.837 327.411 181.062 327.21 181.301C327.009 181.536 326.744 181.737 326.415 181.903C326.085 182.07 325.67 182.153 325.17 182.153ZM325.744 180.466C326.18 180.466 326.551 180.348 326.858 180.114C327.165 179.875 327.398 179.544 327.557 179.119C327.716 178.695 327.795 178.201 327.795 177.636C327.795 177.072 327.716 176.581 327.557 176.165C327.402 175.748 327.17 175.424 326.864 175.193C326.561 174.962 326.187 174.847 325.744 174.847C325.286 174.847 324.903 174.966 324.597 175.205C324.29 175.443 324.059 175.773 323.903 176.193C323.748 176.614 323.67 177.095 323.67 177.636C323.67 178.182 323.748 178.669 323.903 179.097C324.062 179.521 324.295 179.856 324.602 180.102C324.913 180.345 325.294 180.466 325.744 180.466Z"
    />
    <path
        d="M24 75C21.2391 75 19 77.2391 19 80C19 82.7609 21.2391 85 24 85C26.7609 85 29 82.7609 29 80C29 77.2344 26.7609 75 24 75ZM24 82.5C22.6216 82.5 21.5 81.3784 21.5 80C21.5 78.6216 22.6216 77.5 24 77.5C25.3784 77.5 26.5 78.6216 26.5 80C26.5 81.3784 25.3781 82.5 24 82.5ZM41.5 65C37.3594 65 34 68.3594 34 72.5C34 76.6406 37.3594 80 41.5 80C45.6406 80 49 76.6406 49 72.5C49 68.3594 45.6406 65 41.5 65ZM41.5 77.5C38.7438 77.5 36.5 75.2562 36.5 72.5C36.5 69.7438 38.7438 67.5 41.5 67.5C44.2562 67.5 46.5 69.7438 46.5 72.5C46.5 75.2562 44.25 77.5 41.5 77.5ZM79 17.5C78.4873 17.5 77.9941 17.5488 77.5009 17.6123C74.4844 10.0266 67.1719 5 59 5C50.9375 5 43.6562 9.93594 40.5937 17.3859C40.0625 17.3187 39.5313 17.2656 39 17.2656C27.9703 17.2656 19 26.2469 19 37.2813C19 48.3156 27.9703 57.2656 39 57.2656C40.9719 57.2656 42.9703 56.9434 44.9578 56.3086C47.5781 61.6719 52.9688 65.0781 59 65.0781C64.9422 65.0781 70.2984 61.7547 72.9547 56.5203C74.9687 57.1719 77 57.5 79 57.5C90.0297 57.5 99 48.5359 99 37.5156C99 26.4953 90.0312 17.5 79 17.5ZM79 55C76.9297 55 74.8297 54.5947 72.75 53.7964C72.1298 53.562 71.4122 53.8574 71.1484 54.4825C69.0938 59.4062 64.3281 62.5781 59 62.5781C53.5953 62.5781 48.8047 59.3234 46.7922 54.2844C46.5937 53.7969 46.125 53.5 45.625 53.5C45.4785 53.5 45.3272 53.5269 45.1806 53.5806C43.125 54.2344 41.0312 54.7656 39 54.7656C29.3516 54.7656 21.5 46.9141 21.5 37.2656C21.5 27.6172 29.3516 19.7656 39 19.7656C39.5908 19.7656 40.1523 19.8486 40.7234 19.9267L41.2361 19.9975C41.822 20.0756 42.3786 19.7289 42.5739 19.1747C45.0469 12.1922 51.5156 7.5 59 7.5C66.4422 7.5 73.0672 12.2781 75.5 19.3875C75.6856 19.9514 76.247 20.308 76.8378 20.2248L77.37 20.154C77.7656 20.0781 78.4375 20 79 20C88.6484 20 96.5 27.8516 96.5 37.5C96.5 47.1484 88.6562 55 79 55Z"
        fill="#B5F100"
    />
    <path
        d="M555 59C555.55 59 556 58.55 556 58C556 57.45 555.55 57 555 57H522V27C522 24.7912 523.791 23 526 23H570C572.209 23 574 24.7912 574 27V32C574 32.5525 574.45 33 575 33C575.55 33 576 32.5525 576 32V27C576 23.6875 573.312 21.015 570.015 21H525.988C522.688 21.0156 520 23.6875 520 27V57H514C512.895 57 512 57.9 512 59V61C512.016 65.4062 515.579 68.985 519.985 69H555C555.552 69 556 68.5523 556 68C556 67.4477 555.552 67 555 67H519.991C516.7 66.9875 514.011 64.2875 514 61V59H555ZM587.5 36.8875H564.5C562.013 36.8875 560 39.0125 560 41.5V80.5C560 82.9875 562.013 85 564.5 85H587.5C589.987 85 592 82.9875 592 80.5V41.5C592 39.0125 589.987 36.8875 587.5 36.8875ZM590 80.5C590 81.8787 588.879 83 587.5 83H564.5C563.121 83 562 81.8784 562 80.5V41.5C562 40.1213 563.122 39 564.5 39H587.5C588.879 39 590 40.1216 590 41.5V80.5Z"
        fill="#B5F100"
    />
    <path
        fill-rule="evenodd"
        clip-rule="evenodd"
        d="M76.9393 113.061C76.3536 112.475 76.3536 111.525 76.9393 110.939L86.4853 101.393C87.0711 100.808 88.0208 100.808 88.6066 101.393C89.1924 101.979 89.1924 102.929 88.6066 103.515L81.6213 110.5L512.379 110.5L505.393 103.515C504.808 102.929 504.808 101.979 505.393 101.393C505.979 100.808 506.929 100.808 507.515 101.393L517.061 110.939C517.646 111.525 517.646 112.475 517.061 113.061L507.515 122.607C506.929 123.192 505.979 123.192 505.393 122.607C504.808 122.021 504.808 121.071 505.393 120.485L512.379 113.5L81.6213 113.5L88.6066 120.485C89.1924 121.071 89.1924 122.021 88.6066 122.607C88.0208 123.192 87.0711 123.192 86.4853 122.607L76.9393 113.061Z"
        fill="#B5F100"
    />
    <path
        fill-rule="evenodd"
        clip-rule="evenodd"
        d="M275.499 66.5858C275.728 65.7896 276.559 65.3296 277.355 65.5583C278.294 65.8279 279.282 66.1929 280.259 66.5705C281.032 66.869 281.416 67.7375 281.118 68.5103C280.819 69.283 279.951 69.6675 279.178 69.3689C278.214 68.9963 277.329 68.6723 276.527 68.4417C275.731 68.2129 275.271 67.382 275.499 66.5858ZM273.444 67.7894C273.483 68.6168 272.845 69.3198 272.017 69.3594C271.065 69.405 270.102 69.5317 269.132 69.729C268.32 69.894 267.528 69.3697 267.363 68.5579C267.198 67.746 267.722 66.9542 268.534 66.7891C269.638 66.5647 270.753 66.4165 271.874 66.3628C272.701 66.3232 273.404 66.9619 273.444 67.7894ZM283.81 69.5646C284.027 68.7652 284.852 68.2936 285.651 68.5112C286.584 68.765 287.438 68.9199 288.203 68.9453C289.331 68.9827 290.465 69.0014 291.604 69.0084C292.432 69.0136 293.099 69.6893 293.094 70.5177C293.089 71.3461 292.413 72.0135 291.585 72.0084C290.426 72.0012 289.265 71.9821 288.104 71.9436C287.026 71.9079 285.928 71.6956 284.863 71.4059C284.064 71.1883 283.592 70.3639 283.81 69.5646ZM264.246 69.6024C264.576 70.3619 264.229 71.2458 263.469 71.5765C261.629 72.3779 259.814 73.3412 258.055 74.378C257.342 74.7986 256.422 74.561 256.001 73.8473C255.581 73.1336 255.818 72.2141 256.532 71.7934C258.365 70.7134 260.29 69.6887 262.272 68.826C263.031 68.4952 263.915 68.8429 264.246 69.6024ZM298.462 68.9659C299.612 68.954 300.766 68.9444 301.919 68.9444H306.165C306.994 68.9444 307.665 69.616 307.665 70.4444C307.665 71.2729 306.994 71.9444 306.165 71.9444H301.919C300.781 71.9444 299.64 71.9539 298.493 71.9657C297.664 71.9743 296.986 71.3097 296.977 70.4813C296.969 69.6529 297.633 68.9744 298.462 68.9659ZM313.158 70.4444C313.158 69.616 313.829 68.9444 314.658 68.9444H318.904C320.411 68.9444 321.857 69.0987 323.256 69.3471C324.072 69.4918 324.616 70.2704 324.471 71.0861C324.326 71.9017 323.548 72.4457 322.732 72.3009C321.473 72.0775 320.205 71.9444 318.904 71.9444H314.658C313.829 71.9444 313.158 71.2729 313.158 70.4444ZM329.495 72.5343C329.737 71.7422 330.576 71.2968 331.368 71.5393C332.66 71.9349 333.938 72.31 335.239 72.6215C336.251 72.8637 337.23 73.1543 338.179 73.4894C338.96 73.7652 339.37 74.6221 339.094 75.4032C338.818 76.1844 337.961 76.5941 337.18 76.3183C336.329 76.0177 335.45 75.7567 334.54 75.539C333.147 75.2054 331.798 74.8085 330.49 74.4078C329.697 74.1652 329.252 73.3265 329.495 72.5343ZM253.242 75.6262C253.706 76.3122 253.526 77.2448 252.84 77.7092C252.008 78.273 251.204 78.8273 250.429 79.3618L250.261 79.4772C249.292 80.1455 248.343 80.8763 247.421 81.6608C246.79 82.1978 245.843 82.1216 245.306 81.4907C244.77 80.8598 244.846 79.9131 245.477 79.3762C246.472 78.5291 247.502 77.7361 248.558 77.0074C248.614 76.9687 248.671 76.9299 248.727 76.8909C249.501 76.3575 250.315 75.7963 251.159 75.2249C251.845 74.7605 252.777 74.9401 253.242 75.6262ZM341.643 76.6165C342.071 75.9074 342.993 75.6798 343.702 76.1081C345.453 77.1655 347.077 78.3782 348.594 79.7034C349.218 80.2484 349.282 81.196 348.737 81.8199C348.192 82.4438 347.244 82.5077 346.62 81.9627C345.219 80.739 343.735 79.633 342.151 78.676C341.442 78.2477 341.214 77.3256 341.643 76.6165ZM350.718 83.8263C351.341 83.28 352.288 83.3421 352.834 83.9649C354.146 85.4601 355.374 87.0278 356.536 88.6279C357.022 89.2982 356.874 90.2362 356.203 90.723C355.533 91.2098 354.595 91.061 354.108 90.3907C352.988 88.8487 351.818 87.3555 350.579 85.9431C350.033 85.3202 350.095 84.3725 350.718 83.8263ZM242.181 84.693C242.821 85.218 242.915 86.163 242.39 86.8039C240.855 88.6789 239.485 90.6841 238.331 92.7492C237.928 93.4725 237.014 93.7314 236.291 93.3275C235.567 92.9236 235.308 92.0098 235.712 91.2865C236.954 89.0622 238.425 86.9108 240.07 84.9029C240.595 84.262 241.54 84.1681 242.181 84.693ZM357.782 93.058C358.478 92.6092 359.406 92.8098 359.855 93.5061C360.93 95.1731 361.96 96.8422 362.958 98.4646C363.392 99.1701 363.172 100.094 362.467 100.528C361.761 100.962 360.837 100.742 360.403 100.037C359.404 98.4135 358.389 96.769 357.334 95.1315C356.885 94.4352 357.085 93.5069 357.782 93.058ZM234.5 97.4301C235.292 97.673 235.737 98.512 235.494 99.304C235.139 100.461 234.867 101.61 234.682 102.738C234.632 103.048 234.58 103.364 234.527 103.687C234.401 104.453 234.27 105.256 234.136 106.094C234.005 106.912 233.236 107.469 232.418 107.338C231.6 107.208 231.043 106.438 231.173 105.62C231.308 104.776 231.442 103.964 231.568 103.195C231.62 102.874 231.672 102.56 231.722 102.255C231.929 100.982 232.235 99.701 232.626 98.4243C232.869 97.6323 233.708 97.1872 234.5 97.4301ZM363.947 102.925C364.644 102.477 365.572 102.68 366.02 103.377C366.549 104.2 367.074 104.997 367.599 105.763C368.096 106.487 368.574 107.225 369.029 107.975C369.459 108.684 369.233 109.606 368.524 110.036C367.816 110.465 366.893 110.239 366.464 109.531C366.04 108.833 365.593 108.142 365.125 107.459C364.579 106.663 364.037 105.84 363.496 104.998C363.048 104.301 363.25 103.373 363.947 102.925ZM231.871 111.112C232.693 111.211 233.28 111.958 233.18 112.781C232.919 114.951 232.706 117.202 232.591 119.465C232.549 120.292 231.845 120.929 231.017 120.887C230.19 120.845 229.553 120.141 229.595 119.313C229.714 116.965 229.934 114.642 230.202 112.422C230.301 111.599 231.048 111.013 231.871 111.112ZM369.501 111.901C370.264 111.579 371.144 111.937 371.466 112.7C372.169 114.367 372.723 116.087 373.074 117.852C373.236 118.664 372.708 119.454 371.896 119.616C371.083 119.777 370.293 119.25 370.132 118.437C369.825 116.898 369.337 115.373 368.702 113.866C368.38 113.103 368.738 112.223 369.501 111.901ZM372.057 121.722C372.884 121.773 373.513 122.484 373.463 123.311C373.407 124.216 373.29 125.127 373.105 126.044C372.93 126.914 372.825 127.842 372.769 128.825C372.722 129.652 372.013 130.284 371.186 130.237C370.359 130.19 369.726 129.481 369.774 128.654C369.836 127.571 369.954 126.495 370.165 125.45C370.322 124.672 370.421 123.898 370.468 123.128C370.519 122.301 371.23 121.672 372.057 121.722ZM231.004 124.703C231.831 124.655 232.541 125.286 232.59 126.113C232.723 128.376 233.011 130.557 233.502 132.587C233.697 133.392 233.202 134.203 232.397 134.397C231.592 134.592 230.781 134.097 230.586 133.292C230.044 131.051 229.736 128.687 229.595 126.289C229.546 125.462 230.177 124.752 231.004 124.703ZM371.249 133.274C372.078 133.25 372.769 133.901 372.793 134.729C372.852 136.747 372.903 138.861 372.748 140.919C372.685 141.746 371.965 142.365 371.139 142.302C370.312 142.239 369.694 141.519 369.756 140.693C369.898 138.813 369.854 136.848 369.794 134.817C369.77 133.989 370.421 133.298 371.249 133.274ZM233.765 137.965C234.475 137.538 235.397 137.766 235.824 138.475C236.365 139.371 236.981 140.194 237.679 140.936C238.369 141.667 239.149 142.339 240.007 142.96C240.678 143.446 240.828 144.384 240.342 145.055C239.857 145.726 238.919 145.876 238.248 145.39C237.257 144.673 236.331 143.879 235.496 142.993C234.64 142.085 233.897 141.089 233.255 140.024C232.828 139.315 233.056 138.393 233.765 137.965ZM370.529 145.291C371.286 145.628 371.627 146.514 371.291 147.271C370.84 148.288 370.263 149.262 369.529 150.175C368.885 150.978 368.084 151.705 367.194 152.364C366.528 152.856 365.589 152.716 365.096 152.05C364.603 151.384 364.744 150.445 365.409 149.952C366.15 149.404 366.747 148.849 367.191 148.297C367.75 147.601 368.195 146.851 368.549 146.054C368.886 145.296 369.772 144.955 370.529 145.291ZM243.661 146.801C243.977 146.035 244.854 145.67 245.62 145.986C247.594 146.801 249.701 147.489 251.847 148.116C252.642 148.348 253.099 149.181 252.866 149.977C252.634 150.772 251.801 151.228 251.006 150.996C248.807 150.353 246.588 149.631 244.476 148.759C243.71 148.443 243.345 147.566 243.661 146.801ZM256.484 150.944C256.7 150.145 257.524 149.671 258.323 149.888C259.444 150.191 260.547 150.496 261.607 150.813C262.609 151.113 263.616 151.405 264.629 151.69C265.426 151.915 265.89 152.744 265.666 153.541C265.441 154.338 264.612 154.803 263.815 154.578C262.787 154.288 261.765 153.991 260.747 153.687C259.725 153.381 258.652 153.084 257.541 152.784C256.741 152.568 256.268 151.744 256.484 150.944ZM362.744 153.293C363.073 154.053 362.724 154.936 361.963 155.265C360.209 156.025 358.339 156.686 356.496 157.249C355.704 157.492 354.865 157.046 354.623 156.254C354.381 155.461 354.827 154.623 355.619 154.38C357.382 153.841 359.143 153.217 360.772 152.512C361.532 152.183 362.415 152.533 362.744 153.293ZM268.896 154.396C269.095 153.592 269.908 153.101 270.712 153.3C272.742 153.802 274.786 154.273 276.843 154.711C277.653 154.884 278.17 155.68 277.998 156.49C277.826 157.301 277.029 157.818 276.219 157.645C274.129 157.201 272.052 156.722 269.991 156.212C269.187 156.013 268.697 155.2 268.896 154.396ZM352.055 156.923C352.234 157.732 351.723 158.532 350.914 158.711C349.903 158.934 348.949 159.123 348.085 159.276C347.06 159.458 346.038 159.625 345.018 159.778C344.199 159.901 343.435 159.337 343.312 158.518C343.189 157.698 343.753 156.935 344.573 156.812C345.567 156.662 346.563 156.499 347.561 156.322C348.383 156.177 349.295 155.996 350.267 155.782C351.076 155.603 351.877 156.114 352.055 156.923ZM281.277 157.131C281.422 156.315 282.201 155.771 283.016 155.916C285.079 156.282 287.15 156.613 289.226 156.906C290.046 157.022 290.617 157.781 290.501 158.601C290.385 159.422 289.626 159.993 288.806 159.877C286.694 159.579 284.589 159.242 282.492 158.87C281.676 158.725 281.132 157.947 281.277 157.131ZM340.202 158.905C340.286 159.73 339.685 160.466 338.861 160.549C336.8 160.759 334.743 160.922 332.688 161.05C331.861 161.101 331.149 160.472 331.098 159.645C331.047 158.818 331.676 158.107 332.503 158.055C334.523 157.93 336.54 157.77 338.558 157.565C339.382 157.481 340.118 158.081 340.202 158.905ZM293.817 159.008C293.903 158.184 294.64 157.585 295.464 157.67C297.55 157.886 299.638 158.062 301.724 158.195C302.55 158.248 303.178 158.961 303.125 159.787C303.072 160.614 302.359 161.242 301.532 161.189C299.406 161.053 297.279 160.874 295.155 160.654C294.331 160.569 293.732 159.832 293.817 159.008ZM327.967 159.787C327.993 160.615 327.343 161.307 326.515 161.334C324.465 161.399 322.411 161.439 320.352 161.463C319.524 161.472 318.844 160.809 318.835 159.98C318.825 159.152 319.489 158.473 320.317 158.463C322.361 158.439 324.394 158.4 326.42 158.335C327.248 158.309 327.941 158.959 327.967 159.787ZM306.463 159.932C306.481 159.104 307.167 158.447 307.996 158.465C309.043 158.488 310.089 158.5 311.133 158.5C312.159 158.5 313.18 158.5 314.198 158.498C315.027 158.497 315.699 159.168 315.701 159.996C315.702 160.824 315.031 161.497 314.203 161.498C313.182 161.5 312.159 161.5 311.133 161.5C310.066 161.5 308.999 161.488 307.93 161.465C307.102 161.446 306.445 160.76 306.463 159.932Z"
        fill="#20D3C1"
    />
</svg>