<svg xmlns="http://www.w3.org/2000/svg" style="display:none">
    <symbol id="logo-figma-color" viewBox="0 0 38 57">
        <path fill="#1ABCFE" d="M19 28.5C19 25.9804 20.0009 23.5641 21.7825 21.7825C23.5641 20.0009 25.9804 19 28.5 19C31.0196 19 33.4359 20.0009 35.2175 21.7825C36.9991 23.5641 38 25.9804 38 28.5C38 31.0196 36.9991 33.4359 35.2175 35.2175C33.4359 36.9991 31.0196 38 28.5 38C25.9804 38 23.5641 36.9991 21.7825 35.2175C20.0009 33.4359 19 31.0196 19 28.5Z" />
        <path fill="#0ACF83" d="M0 47.5C0 44.9804 1.00089 42.5641 2.78249 40.7825C4.56408 39.0009 6.98044 38 9.5 38H19V47.5C19 50.0196 17.9991 52.4359 16.2175 54.2175C14.4359 55.9991 12.0196 57 9.5 57C6.98044 57 4.56408 55.9991 2.78249 54.2175C1.00089 52.4359 0 50.0196 0 47.5Z" />
        <path fill="#FF7262" d="M19 0V19H28.5C31.0196 19 33.4359 17.9991 35.2175 16.2175C36.9991 14.4359 38 12.0196 38 9.5C38 6.98044 36.9991 4.56408 35.2175 2.78249C33.4359 1.00089 31.0196 0 28.5 0H19Z" />
        <path fill="#F24E1E" d="M0 9.5C0 12.0196 1.00089 14.4359 2.78249 16.2175C4.56408 17.9991 6.98044 19 9.5 19H19V0H9.5C6.98044 0 4.56408 1.00089 2.78249 2.78249C1.00089 4.56408 0 6.98044 0 9.5Z" />
        <path fill="#A259FF" d="M0 28.5C0 31.0196 1.00089 33.4359 2.78249 35.2175C4.56408 36.9991 6.98044 38 9.5 38H19V19H9.5C6.98044 19 4.56408 20.0009 2.78249 21.7825C1.00089 23.5641 0 25.9804 0 28.5Z" />
    </symbol>
    <symbol id="logo-instagram" viewBox="0 0 201 200">
        <path fill="black" d="M100 18.0184C126.701 18.0184 129.864 18.1204 140.41 18.6015C150.16 19.0465 155.454 20.6752 158.978 22.0447C163.322 23.6477 167.251 26.2039 170.476 29.5252C173.798 32.7508 176.354 36.6798 177.957 41.0233C179.326 44.547 180.955 49.8419 181.4 59.5918C181.881 70.1368 181.983 73.2993 181.983 100.001C181.983 126.703 181.881 129.865 181.4 140.411C180.955 150.161 179.326 155.455 177.957 158.98C176.293 163.292 173.745 167.209 170.476 170.478C167.208 173.746 163.291 176.294 158.978 177.958C155.455 179.328 150.16 180.957 140.41 181.401C129.867 181.882 126.704 181.984 100 181.984C73.2961 181.984 70.1348 181.882 59.5906 181.401C49.8407 180.956 44.5462 179.327 41.0221 177.958C36.6786 176.355 32.7496 173.799 29.524 170.478C26.2027 167.252 23.6466 163.323 22.0435 158.98C20.674 155.456 19.0449 150.161 18.6003 140.411C18.1192 129.866 18.0172 126.703 18.0172 100.001C18.0172 73.2993 18.1192 70.1376 18.6003 59.5918C19.0453 49.8419 20.674 44.5474 22.0435 41.0233C23.6467 36.6796 26.2032 32.7505 29.5248 29.5248C32.7504 26.2035 36.6794 23.6474 41.0229 22.0443C44.5466 20.6748 49.8415 19.0457 59.5914 18.6011C70.1364 18.12 73.2989 18.018 100.001 18.018M100.001 0C72.8424 0 69.4358 0.115116 58.7713 0.601777C48.1271 1.08764 40.8581 2.77786 34.4974 5.25007C27.8249 7.76103 21.7804 11.6973 16.7855 16.7843C11.6973 21.7789 7.75998 27.8234 5.24808 34.4962C2.77786 40.8573 1.08764 48.1263 0.603762 58.7705C0.115116 69.435 0 72.8416 0 100C0 127.159 0.115116 130.565 0.603762 141.23C1.08963 151.874 2.77984 159.143 5.25205 165.504C7.76303 172.176 11.6993 178.221 16.7862 183.216C21.7812 188.303 27.8257 192.239 34.4982 194.75C40.8593 197.222 48.1283 198.912 58.7721 199.398C69.4382 199.885 72.8436 200 100.002 200C127.16 200 130.567 199.885 141.231 199.398C151.876 198.912 159.145 197.222 165.505 194.75C172.148 192.181 178.181 188.252 183.217 183.216C188.254 178.18 192.182 172.147 194.752 165.504C197.224 159.143 198.914 151.874 199.4 141.23C199.886 130.564 200.002 127.158 200.002 100C200.002 72.842 199.886 69.435 199.4 58.7705C198.914 48.1263 197.224 40.8573 194.752 34.4966C192.241 27.8241 188.304 21.7796 183.217 16.7847C178.222 11.6966 172.177 7.75958 165.504 5.24808C159.143 2.77786 151.874 1.08764 141.23 0.603762C130.565 0.115116 127.159 0 100 0H100.001Z" />
        <path fill="black" d="M100 48.6487C89.8438 48.6487 79.9155 51.6604 71.4708 57.303C63.0261 62.9456 56.4443 70.9656 52.5576 80.3488C48.6709 89.7321 47.654 100.057 49.6354 110.018C51.6168 119.98 56.5076 129.13 63.6892 136.311C70.8708 143.493 80.0208 148.384 89.982 150.365C99.9432 152.346 110.268 151.329 119.652 147.443C129.035 143.556 137.055 136.974 142.697 128.53C148.34 120.085 151.352 110.157 151.352 100C151.352 86.3809 145.941 73.3195 136.311 63.6892C126.681 54.0589 113.619 48.6487 100 48.6487ZM100 133.333C93.4075 133.333 86.963 131.378 81.4814 127.715C75.9999 124.053 71.7275 118.847 69.2047 112.756C66.6818 106.665 66.0218 99.963 67.308 93.497C68.5942 87.031 71.7689 81.0917 76.4307 76.43C81.0924 71.7683 87.0318 68.5937 93.4978 67.3075C99.9638 66.0214 106.666 66.6815 112.757 69.2044C118.848 71.7274 124.053 75.9997 127.716 81.4813C131.379 86.9629 133.334 93.4075 133.334 100C133.334 108.841 129.822 117.319 123.57 123.57C117.319 129.821 108.841 133.333 100 133.333Z" />
        <path fill="black" d="M153.381 58.6197C160.008 58.6197 165.38 53.2472 165.38 46.6199C165.38 39.9926 160.008 34.62 153.381 34.62C146.753 34.62 141.381 39.9926 141.381 46.6199C141.381 53.2472 146.753 58.6197 153.381 58.6197Z" />
    </symbol>
    <symbol id="logo-amazon" viewBox="0 0 664 200">
        <path fill="#FF9900" d="M411.729 156.406C373.162 184.833 317.261 200 269.132 200C201.647 200 140.893 175.04 94.9299 133.526C91.3188 130.261 94.5544 125.813 98.8878 128.355C148.491 157.215 209.822 174.578 273.176 174.578C315.903 174.578 362.906 165.737 406.124 147.393C412.653 144.619 418.113 151.668 411.729 156.406Z" />
        <path fill="#FF9900" d="M427.763 138.062C422.851 131.764 395.175 135.086 382.753 136.559C378.969 137.022 378.391 133.728 381.8 131.359C403.842 115.846 440.012 120.324 444.229 125.524C448.447 130.753 443.132 167.009 422.418 184.313C419.24 186.971 416.207 185.555 417.622 182.031C422.274 170.417 432.703 144.388 427.763 138.062Z" />
        <path fill="#221F1F" d="M383.62 21.8402V6.76007C383.62 4.47783 385.353 2.9467 387.433 2.9467H454.947C457.114 2.9467 458.847 4.50672 458.847 6.76007V19.6736C458.818 21.8402 456.998 24.6714 453.763 29.1492L418.778 79.0986C431.778 78.7809 445.5 80.7164 457.287 87.361C459.945 88.8632 460.667 91.0588 460.87 93.2255V109.317C460.87 111.512 458.443 114.083 455.901 112.755C435.129 101.863 407.54 100.679 384.573 112.87C382.233 114.141 379.778 111.599 379.778 109.403V94.121C379.778 91.6655 379.806 87.4765 382.262 83.7498L422.794 25.6247H387.52C385.353 25.6247 383.62 24.0936 383.62 21.8402Z" />
        <path fill="#221F1F" d="M137.339 115.932H116.799C114.835 115.788 113.275 114.315 113.13 112.437V7.0201C113.13 4.91118 114.892 3.23559 117.088 3.23559H136.241C138.235 3.32221 139.824 4.85339 139.968 6.76007V20.5402H140.344C145.342 7.2223 154.731 1.01112 167.384 1.01112C180.24 1.01112 188.271 7.2223 194.049 20.5402C199.018 7.2223 210.313 1.01112 222.418 1.01112C231.027 1.01112 240.445 4.56449 246.194 12.5379C252.694 21.4069 251.365 34.2915 251.365 45.5872L251.336 112.119C251.336 114.228 249.574 115.932 247.378 115.932H226.867C224.816 115.788 223.169 114.141 223.169 112.119V56.2473C223.169 51.7984 223.574 40.7049 222.591 36.4871C221.06 29.4092 216.467 27.4159 210.516 27.4159C205.547 27.4159 200.347 30.7381 198.238 36.0537C196.129 41.3694 196.331 50.2672 196.331 56.2473V112.119C196.331 114.228 194.569 115.932 192.373 115.932H171.862C169.782 115.788 168.164 114.141 168.164 112.119L168.135 56.2473C168.135 44.4894 170.071 27.1847 155.482 27.1847C140.719 27.1847 141.297 44.056 141.297 56.2473V112.119C141.297 114.228 139.535 115.932 137.339 115.932Z" />
        <path fill="#221F1F" d="M516.972 1.01112C547.451 1.01112 563.946 27.1847 563.946 60.4651C563.946 92.6188 545.717 118.128 516.972 118.128C487.043 118.128 470.75 91.9544 470.75 59.3384C470.75 26.5203 487.245 1.01112 516.972 1.01112ZM517.146 22.5336C502.008 22.5336 501.054 43.1605 501.054 56.0162C501.054 68.9008 500.852 96.4033 516.972 96.4033C532.89 96.4033 533.641 74.2164 533.641 60.6962C533.641 51.7984 533.266 41.1671 530.579 32.7315C528.268 25.3936 523.675 22.5336 517.146 22.5336Z" />
        <path fill="#221F1F" d="M603.467 115.932H583.013C580.962 115.788 579.315 114.141 579.315 112.119L579.286 6.67341C579.46 4.73783 581.164 3.23559 583.244 3.23559H602.282C604.073 3.32221 605.547 4.53561 605.951 6.1823V22.3025H606.327C612.076 7.88676 620.136 1.01112 634.32 1.01112C643.536 1.01112 652.521 4.33339 658.298 13.4335C663.672 21.8691 663.672 36.0537 663.672 46.2516V112.61C663.441 114.459 661.736 115.932 659.714 115.932H639.116C637.238 115.788 635.678 114.401 635.476 112.61V55.3517C635.476 43.8249 636.805 26.9536 622.62 26.9536C617.622 26.9536 613.029 30.3048 610.747 35.3893C607.858 41.8316 607.482 48.245 607.482 55.3517V112.119C607.453 114.228 605.662 115.932 603.467 115.932Z" />
        <path fill="#221F1F" d="M329.799 65.5785V61.1296C314.95 61.1296 299.263 64.3074 299.263 81.8142C299.263 90.6832 303.857 96.6922 311.743 96.6922C317.521 96.6922 322.692 93.1388 325.957 87.361C330.001 80.2542 329.799 73.5808 329.799 65.5785ZM350.513 115.643C349.155 116.857 347.19 116.944 345.659 116.135C338.842 110.472 337.628 107.843 333.873 102.441C322.606 113.939 314.632 117.377 300.014 117.377C282.739 117.377 269.276 106.717 269.276 85.3676C269.276 68.6985 278.319 57.3451 291.174 51.7984C302.326 46.8872 317.897 46.0205 329.799 44.6627V42.0049C329.799 37.1226 330.175 31.3448 327.315 27.127C324.801 23.3425 320.006 21.7825 315.788 21.7825C307.959 21.7825 300.968 25.7981 299.263 34.1182C298.917 35.9671 297.559 37.7871 295.71 37.8738L275.776 35.7359C274.101 35.3604 272.252 34.0026 272.714 31.4315C277.307 7.2801 299.119 0 318.648 0C328.644 0 341.702 2.65781 349.588 10.2268C359.584 19.558 358.631 32.0092 358.631 45.5583V77.5675C358.631 87.1877 362.617 91.4055 366.373 96.6055C367.702 98.4544 367.991 100.679 366.315 102.066C362.126 105.561 354.673 112.061 350.57 115.701L350.513 115.643Z" />
        <path fill="#221F1F" d="M60.5229 65.5785V61.1296C45.6738 61.1296 29.987 64.3074 29.987 81.8142C29.987 90.6832 34.5804 96.6922 42.4671 96.6922C48.245 96.6922 53.4161 93.1388 56.6806 87.361C60.7251 80.2542 60.5229 73.5808 60.5229 65.5785ZM81.2365 115.643C79.8787 116.857 77.9142 116.944 76.3831 116.135C69.5652 110.472 68.3519 107.843 64.5963 102.441C53.3295 113.939 45.3561 117.377 30.7381 117.377C13.4624 117.377 0 106.717 0 85.3676C0 68.6985 9.04232 57.3451 21.898 51.7984C33.0492 46.8872 48.6205 46.0205 60.5229 44.6627V42.0049C60.5229 37.1226 60.8985 31.3448 58.0384 27.127C55.525 23.3425 50.7294 21.7825 46.5116 21.7825C38.6827 21.7825 31.6915 25.7981 29.987 34.1182C29.6403 35.9671 28.2825 37.7871 26.4336 37.8738L6.50007 35.7359C4.82449 35.3604 2.97558 34.0026 3.43781 31.4315C8.0312 7.2801 29.8425 0 49.3717 0C59.3673 0 72.4252 2.65781 80.312 10.2268C90.3077 19.558 89.3543 32.0092 89.3543 45.5583V77.5675C89.3543 87.1877 93.341 91.4055 97.0966 96.6055C98.4255 98.4544 98.7144 100.679 97.0388 102.066C92.8499 105.561 85.3965 112.061 81.2942 115.701L81.2365 115.643Z" />
    </symbol>
    <symbol id="logo-facebook" viewBox="0 0 200 200">
        <path fill="#1977F3" d="M100 200C155.228 200 200 155.228 200 100C200 44.7715 155.228 0 100 0C44.7715 0 0 44.7715 0 100C0 155.228 44.7715 200 100 200Z" />
        <path fill="white" d="M138.926 128.913L143.355 100H115.624V81.2403C115.624 73.3371 119.491 65.6167 131.922 65.6167H144.537V41.0069C144.537 41.0069 133.09 39.0522 122.149 39.0522C99.3109 39.0522 84.3763 52.8899 84.3763 77.9637V100H58.979V128.913H84.3763V198.791C89.467 199.592 94.6843 200 100 200C105.316 200 110.533 199.578 115.624 198.791V128.913H138.926Z" />
    </symbol>
    <symbol id="logo-tiktok" viewBox="0 0 129 146">
        <path fill="#FF004F" d="M95.551 52.591C104.958 59.312 116.482 63.2665 128.928 63.2665V39.328C126.573 39.3285 124.223 39.083 121.919 38.595V57.438C109.473 57.438 97.951 53.4835 88.5415 46.763V95.6145C88.5415 120.053 68.7205 139.862 44.2715 139.862C35.149 139.862 26.67 137.106 19.6265 132.378C27.6655 140.594 38.8765 145.69 51.2795 145.69C75.73 145.69 95.552 125.88 95.552 101.441V52.591H95.551ZM104.198 28.44C99.3905 23.1905 96.234 16.4065 95.551 8.9065V5.8275H88.9085C90.5805 15.36 96.2835 23.504 104.198 28.44ZM35.0905 113.625C32.4045 110.105 30.953 105.799 30.9595 101.371C30.9595 90.1945 40.0255 81.132 51.2105 81.132C53.295 81.1315 55.367 81.4505 57.3535 82.0805V57.607C55.032 57.289 52.689 57.154 50.347 57.2035V76.2525C48.359 75.6225 46.286 75.3025 44.201 75.3045C33.016 75.3045 23.9505 84.366 23.9505 95.5445C23.9505 103.449 28.482 110.292 35.0905 113.625Z" />
        <path fill="black" d="M88.5415 46.763C97.951 53.4835 109.473 57.438 121.919 57.438V38.595C114.972 37.116 108.822 33.487 104.198 28.44C96.2835 23.504 90.5805 15.36 88.9085 5.8275H71.4605V101.44C71.421 112.587 62.3705 121.613 51.2095 121.613C44.6325 121.613 38.7895 118.479 35.089 113.625C28.481 110.292 23.9495 103.448 23.9495 95.545C23.9495 84.3675 33.015 75.305 44.2 75.305C46.343 75.305 48.4085 75.6385 50.346 76.253V57.204C26.3265 57.7 7.009 77.316 7.009 101.441C7.009 113.484 11.819 124.401 19.6265 132.378C26.67 137.106 35.149 139.862 44.2715 139.862C68.7205 139.862 88.5415 120.053 88.5415 95.6145V46.763Z" />
        <path fill="#00F2EA" d="M121.919 38.595L121.919 33.4995C115.654 33.509 109.513 31.756 104.198 28.44C108.903 33.5885 115.098 37.1385 121.919 38.595ZM88.9085 5.8275C88.749 4.9165 88.6265 3.9995 88.5415 3.079V0H64.4505V95.614C64.412 106.759 55.362 115.785 44.2 115.785C40.923 115.785 37.829 115.007 35.089 113.625C38.7895 118.479 44.6325 121.613 51.2095 121.613C62.3695 121.613 71.4215 112.587 71.4605 101.44V5.8275H88.9085ZM50.347 57.2035V51.78C48.334 51.505 46.3045 51.367 44.2725 51.368C19.821 51.3675 0 71.178 0 95.614C0 110.934 7.79 124.436 19.6275 132.378C11.82 124.401 7.009 113.484 7.009 101.441C7.009 77.3165 26.3265 57.6995 50.347 57.2035Z" />
    </symbol>
    <symbol id="logo-youtube" viewBox="0 0 164 115">
        <path fill="#FF0000" d="M159.865 17.8497C157.984 10.8201 152.459 5.29593 145.429 3.41421C132.701 0.000245094 81.6393 0.000244141 81.6393 0.000244141C81.6393 0.000244141 30.5779 0.000245094 17.8494 3.41421C10.8199 5.29593 5.29569 10.8201 3.41397 17.8497C9.53674e-07 30.5781 0 57.1506 0 57.1506C0 57.1506 9.53674e-07 83.7233 3.41397 96.4518C5.29569 103.481 10.8199 109.005 17.8494 110.887C30.5779 114.301 81.6393 114.301 81.6393 114.301C81.6393 114.301 132.701 114.301 145.429 110.887C152.459 109.005 157.984 103.481 159.865 96.4518C163.279 83.7233 163.279 57.1506 163.279 57.1506C163.279 57.1506 163.265 30.5781 159.865 17.8497Z" />
        <path fill="white" d="M65.296 81.6419L107.715 57.1529L65.296 32.6636V81.6419Z"/>
    </symbol>
    <symbol id="logo-ebay" viewBox="0 0 500 200">
        <path fill="#E53238" d="M64.544 43.6354C29.3375 43.6354 0 58.5717 0 103.634C0 139.333 19.7274 161.815 65.4531 161.815C119.274 161.815 122.724 126.361 122.724 126.361H96.6455C96.6455 126.361 91.054 145.451 63.8622 145.451C41.7152 145.451 25.7862 130.49 25.7862 109.52H125.452V96.3615C125.452 75.6156 112.282 43.6354 64.544 43.6354ZM63.6349 60.4532C84.7166 60.4532 99.0887 73.3682 99.0887 92.7252H26.363C26.363 72.1754 45.1223 60.4532 63.6349 60.4532Z" />
        <path fill="#0064D2" d="M125.433 0V139.184C125.433 147.085 124.869 158.178 124.869 158.178H149.743C149.743 158.178 150.636 150.211 150.636 142.93C150.636 142.93 162.925 162.155 196.341 162.155C231.529 162.155 255.43 137.726 255.43 102.725C255.43 70.1643 233.476 43.9763 196.398 43.9763C161.676 43.9763 150.887 62.7259 150.887 62.7259V0H125.433ZM189.977 61.1918C213.872 61.1918 229.067 78.9262 229.067 102.725C229.067 128.245 211.518 144.94 190.148 144.94C164.644 144.94 150.887 125.027 150.887 102.952C150.887 82.3828 163.232 61.1918 189.977 61.1918Z"  />
        <path fill="#F5AF02" d="M317.247 43.6354C264.282 43.6354 260.885 72.6367 260.885 77.271H287.248C287.248 77.271 288.63 60.3395 315.429 60.3395C332.843 60.3395 346.337 68.3103 346.337 83.6345V89.0889H315.429C274.396 89.0889 252.703 101.093 252.703 125.452C252.703 149.424 272.746 162.468 299.833 162.468C336.747 162.468 348.638 142.071 348.638 142.071C348.638 150.184 349.264 158.178 349.264 158.178H372.7C372.7 158.178 371.791 148.269 371.791 141.929V87.1287C371.791 51.1972 342.809 43.6354 317.247 43.6354ZM346.337 105.452V112.725C346.337 122.21 340.484 145.792 306.026 145.792C287.156 145.792 279.066 136.375 279.066 125.452C279.066 105.58 306.311 105.452 346.337 105.452Z" />
        <path fill="#86B817" d="M357.595 48.1853H387.254L429.818 133.459L472.284 48.1853H499.15L421.798 200H393.617L415.938 157.68L357.595 48.1853Z" />
    </symbol>
    <symbol id="logo-videeo" viewBox="0 0 385 95">
        <path fill="#3366FF" d="M0.969971 30.83H18.27L34.91 77.04H35.17L51.94 30.83H68.71L43.49 94.21H26.58L0.969971 30.83Z" />
        <path fill="#3366FF" d="M88.92 30.83H73.52V94.21H88.92V30.83Z" />
        <path fill="#3366FF" d="M166.27 94.21H151.64V84.18H151.38C149.24 87.77 146.27 89.51 142.46 91.39C138.65 93.27 134.57 94.21 130.21 94.21C125.5 94.21 121.29 93.33 117.57 91.58C113.85 89.83 110.68 87.47 108.08 84.52C105.47 81.57 103.46 78.11 102.05 74.13C100.64 70.15 99.93 65.9 99.93 61.36C99.93 56.82 100.66 52.59 102.11 48.66C103.56 44.73 105.62 41.31 108.27 38.4C110.92 35.49 114.09 33.2 117.76 31.54C121.44 29.87 125.46 29.04 129.82 29.04C132.64 29.04 135.17 29.36 137.39 30C139.61 30.64 141.56 31.43 143.23 32.37C144.9 33.31 146.33 34.34 147.53 35.45C148.73 36.56 149.71 37.63 150.48 38.66H150.87V0.679993H166.27V94.21ZM115.59 61.37C115.59 63.77 115.95 66.16 116.68 68.55C117.4 70.95 118.5 73.08 119.95 74.96C121.4 76.84 123.24 78.38 125.47 79.58C127.69 80.78 130.3 81.38 133.3 81.38C136.12 81.38 138.64 80.8 140.87 79.65C143.09 78.5 145 76.98 146.58 75.1C148.16 73.22 149.36 71.1 150.17 68.75C150.98 66.4 151.39 64.02 151.39 61.63C151.39 59.24 150.98 56.84 150.17 54.44C149.36 52.05 148.16 49.91 146.58 48.03C145 46.15 143.09 44.61 140.87 43.41C138.64 42.21 136.12 41.61 133.3 41.61C130.3 41.61 127.7 42.19 125.47 43.34C123.25 44.49 121.41 46.01 119.95 47.89C118.5 49.77 117.4 51.89 116.68 54.24C115.95 56.59 115.59 58.97 115.59 61.36V61.37Z" />
        <path fill="#3366FF" d="M239.92 62.4V64.45C239.92 65.14 239.88 65.82 239.8 66.5H192.97C193.14 68.73 193.72 70.76 194.7 72.59C195.68 74.43 196.99 76.01 198.61 77.34C200.23 78.67 202.07 79.71 204.13 80.48C206.18 81.25 208.32 81.64 210.54 81.64C214.39 81.64 217.64 80.93 220.29 79.52C222.94 78.11 225.12 76.16 226.83 73.68L237.09 81.89C231.02 90.1 222.21 94.21 210.66 94.21C205.87 94.21 201.47 93.46 197.44 91.96C193.41 90.46 189.93 88.35 186.98 85.61C184.03 82.88 181.72 79.52 180.05 75.54C178.38 71.56 177.55 67.05 177.55 62C177.55 56.95 178.38 52.53 180.05 48.46C181.71 44.4 184 40.94 186.91 38.07C189.82 35.21 193.26 32.98 197.24 31.4C201.22 29.82 205.51 29.03 210.13 29.03C214.41 29.03 218.36 29.74 222 31.15C225.64 32.56 228.78 34.66 231.43 37.44C234.08 40.22 236.16 43.68 237.65 47.83C239.14 51.98 239.89 56.83 239.89 62.39L239.92 62.4ZM224.53 55.47C224.53 53.5 224.25 51.62 223.7 49.82C223.14 48.02 222.26 46.44 221.07 45.07C219.87 43.7 218.35 42.61 216.52 41.8C214.68 40.99 212.52 40.58 210.04 40.58C205.42 40.58 201.5 41.97 198.3 44.75C195.09 47.53 193.31 51.1 192.97 55.46H224.53V55.47Z" />
        <path fill="#66CCFF" d="M309.84 62.4V64.45C309.84 65.14 309.8 65.82 309.72 66.5H262.89C263.06 68.73 263.64 70.76 264.62 72.59C265.6 74.43 266.91 76.01 268.53 77.34C270.15 78.67 271.99 79.71 274.05 80.48C276.1 81.25 278.24 81.64 280.46 81.64C284.31 81.64 287.56 80.93 290.21 79.52C292.86 78.11 295.04 76.16 296.75 73.68L307.01 81.89C300.94 90.1 292.13 94.21 280.58 94.21C275.79 94.21 271.39 93.46 267.36 91.96C263.34 90.46 259.85 88.35 256.9 85.61C253.95 82.88 251.64 79.52 249.97 75.54C248.3 71.56 247.47 67.05 247.47 62C247.47 56.95 248.3 52.53 249.97 48.46C251.63 44.4 253.92 40.94 256.83 38.07C259.74 35.21 263.18 32.98 267.16 31.4C271.14 29.82 275.43 29.03 280.05 29.03C284.33 29.03 288.28 29.74 291.92 31.15C295.56 32.56 298.7 34.66 301.35 37.44C304 40.22 306.08 43.68 307.57 47.83C309.06 51.98 309.81 56.83 309.81 62.39L309.84 62.4ZM294.45 55.47C294.45 53.5 294.17 51.62 293.62 49.82C293.06 48.02 292.18 46.44 290.99 45.07C289.79 43.7 288.27 42.61 286.44 41.8C284.6 40.99 282.44 40.58 279.96 40.58C275.34 40.58 271.42 41.97 268.22 44.75C265.01 47.53 263.23 51.1 262.89 55.46H294.45V55.47Z" />
        <path fill="#3366FF" d="M317.15 61.37C317.15 56.49 318.03 52.07 319.78 48.09C321.53 44.11 323.91 40.71 326.9 37.89C329.89 35.07 333.44 32.89 337.55 31.34C341.66 29.8 346.02 29.03 350.63 29.03C355.24 29.03 359.61 29.8 363.72 31.34C367.83 32.88 371.37 35.06 374.37 37.89C377.36 40.71 379.74 44.11 381.49 48.09C383.24 52.07 384.12 56.49 384.12 61.37C384.12 66.25 383.24 70.69 381.49 74.71C379.74 78.73 377.36 82.17 374.37 85.04C371.37 87.91 367.83 90.15 363.72 91.78C359.61 93.41 355.25 94.22 350.63 94.22C346.01 94.22 341.65 93.41 337.55 91.78C333.45 90.15 329.89 87.91 326.9 85.04C323.91 82.17 321.53 78.73 319.78 74.71C318.03 70.69 317.15 66.24 317.15 61.37ZM332.8 61.37C332.8 63.77 333.16 66.16 333.89 68.55C334.62 70.95 335.71 73.08 337.16 74.96C338.61 76.84 340.45 78.38 342.68 79.58C344.9 80.78 347.55 81.37 350.63 81.37C353.71 81.37 356.36 80.77 358.59 79.58C360.82 78.39 362.65 76.84 364.11 74.96C365.56 73.08 366.65 70.94 367.38 68.55C368.1 66.16 368.47 63.76 368.47 61.37C368.47 58.98 368.1 56.6 367.38 54.25C366.65 51.9 365.56 49.78 364.11 47.9C362.65 46.02 360.82 44.5 358.59 43.35C356.36 42.2 353.72 41.62 350.63 41.62C347.54 41.62 344.9 42.2 342.68 43.35C340.45 44.51 338.61 46.02 337.16 47.9C335.71 49.78 334.62 51.9 333.89 54.25C333.16 56.6 332.8 58.98 332.8 61.37Z" />
        <path fill="#66CCFF" d="M73.55 0.679993V20.4L88.88 10.48L73.55 0.679993Z" />
    </symbol>
    <symbol id="logo-usps-mono" viewBox="0 0 982 600">
        <path d="M981.25 0H126.786C302.083 36.0119 662.857 110.893 703.571 122.321C743.742 133.598 746.365 139.137 752.431 151.952L752.679 152.476C752.083 149.202 800.893 147.89 843.304 158.929C892.411 171.71 857.143 256.994 827.679 304.911L75.8929 600H853.571L981.25 0Z" />
        <path d="M0 600L97.3214 139.286C186.012 137.649 401.786 135.089 555.357 137.946C708.929 140.804 729.464 165.625 720.536 177.679H353.571L412.5 355.357C439.286 343.155 504.821 314.643 552.679 298.214C612.5 277.679 703.571 256.25 748.214 254.464C792.857 252.679 775 267.857 769.643 268.75C764.286 269.643 693.75 278.571 574.107 324.107C478.393 360.536 151.488 523.214 0 600Z" />
        <path d="M796.875 181.696C784.821 181.696 755.357 181.25 729.464 181.696C725.595 186.31 715.446 196.429 705.804 200C693.75 204.464 660.268 206.696 651.339 206.696C642.411 206.696 630.804 211.607 641.071 218.75C651.339 225.893 710.714 217.411 734.375 214.286C758.036 211.161 793.75 206.696 806.696 211.607C819.643 216.518 812.5 235.268 806.696 249.554C800.893 263.839 796.875 274.554 802.679 276.786C808.482 279.018 813.839 266.518 817.857 257.589C821.875 248.661 833.929 228.571 833.929 206.696C833.929 184.821 808.929 181.696 796.875 181.696Z" />
    </symbol>
    <symbol id="logo-ups-mono" viewBox="0 0 501 600">
        <g clip-path="url(#clip0_143_181)">
            <path d="M250.714 600C250.714 600 110.434 538.814 67.1557 504.49C22.3852 465.689 0 413.457 0 353.763V55.293C110.434 -4.40087 250.714 0.0761689 250.714 0.0761689C250.714 0.0761689 390.995 -4.40087 501.429 55.293V352.27C501.429 411.964 479.044 464.196 434.273 502.997C390.995 538.814 250.714 600 250.714 600ZM20.8929 353.763C20.8929 410.472 41.7857 455.242 80.5868 488.074C116.403 517.921 222.36 564.184 250.714 577.615C280.561 564.184 386.518 516.429 420.842 488.074C459.643 456.735 480.536 408.979 480.536 353.763V61.2624C332.794 47.8313 156.697 55.293 19.4005 182.143L20.8929 353.763Z" />
            <path d="M392.489 311.977C411.889 323.916 419.351 331.377 420.843 344.808C420.843 359.732 410.397 368.686 393.981 368.686C380.55 368.686 364.134 361.224 352.195 350.778V392.564C365.627 400.025 382.042 405.995 399.95 405.995C443.229 405.995 464.121 376.148 464.121 347.793C465.614 322.423 458.152 301.53 420.843 280.637C404.428 270.191 390.996 264.222 390.996 249.298C390.996 234.375 404.428 226.913 416.366 226.913C431.29 226.913 446.213 235.867 455.167 244.821V206.02C447.706 200.051 431.29 191.097 407.412 192.589C377.565 194.081 347.718 214.974 347.718 249.298C349.211 273.176 356.672 291.084 392.489 311.977ZM241.762 403.01C246.239 404.502 252.208 405.995 262.654 405.995C311.902 405.995 340.257 361.224 340.257 297.053C340.257 231.39 310.41 192.589 258.177 192.589C234.3 192.589 214.899 197.066 198.483 207.512V497.028H241.762V403.01ZM241.762 229.898C246.239 228.405 252.208 225.421 256.685 225.421C282.055 225.421 292.501 246.313 292.501 295.561C292.501 343.316 279.07 367.194 253.7 367.194C247.731 367.194 241.762 365.701 240.269 364.209L241.762 229.898ZM108.943 405.995C135.805 405.995 158.19 400.025 174.606 388.086V195.574H129.835V362.717C125.358 367.194 117.897 367.194 108.943 367.194C88.0497 367.194 86.5574 347.793 86.5574 337.347V195.574H41.7869V334.362C41.7869 382.117 65.6645 405.995 108.943 405.995Z" />
        </g>
        <defs>
            <clipPath id="clip0_143_181">
                <rect width="501" height="600" fill="white"/>
            </clipPath>
        </defs>
    </symbol>
    <symbol id="logo-fedex-mono" viewBox="0 0 992 304">
        <path d="M825.221 106.987L866.214 152.166L905.679 106.987H989.949L907.592 199.602L991.078 292.975H903.408L862.8 247.438L822.565 292.975H737.909L820.665 199.988L737.909 106.987H825.221Z" />
        <path d="M737.909 106.987V169.827H644.182V227.491H737.909V292.975L575.301 292.975V0H737.909V65.3043H644.182V106.987L737.909 106.987Z" />
        <path d="M506.709 4.2123e-06V119.899H505.952C490.756 102.444 471.787 96.3734 449.777 96.3734C404.682 96.3734 370.71 127.043 358.789 167.569C345.175 122.914 310.102 95.5337 258.097 95.5337C215.865 95.5337 182.512 114.489 165.113 145.379V106.987H77.8145V65.3043H173.083V4.2123e-06H0V292.975H77.8145V169.827H155.381C153.069 178.871 151.83 188.562 151.83 198.79C151.83 259.896 198.521 302.789 258.097 302.789C308.202 302.789 341.225 279.264 358.679 236.384H291.987C282.97 249.282 276.129 253.095 258.097 253.095C237.187 253.095 219.155 234.856 219.155 213.23H354.948C360.84 261.768 398.653 303.629 450.534 303.629C472.916 303.629 493.412 292.617 505.938 274.033H506.696V293.002H575.287V4.2123e-06H506.709ZM221.33 170.694C225.652 152.083 240.092 139.928 258.111 139.928C277.946 139.928 291.642 151.711 295.249 170.694C296.763 170.694 221.33 170.694 221.33 170.694ZM465.07 248.374C439.783 248.374 424.063 224.807 424.063 200.208C424.063 173.915 437.732 148.628 465.07 148.628C493.412 148.628 504.7 173.915 504.7 200.208C504.7 225.137 492.738 248.374 465.07 248.374Z" />
    </symbol>
</svg>
